{"glyphs":{"0":{"ha":817,"x_min":0,"x_max":0,"o":"m 772 438 b 408 892 772 728 638 892 b 46 438 179 892 46 728 b 408 -17 46 147 179 -17 b 772 438 638 -17 772 147 z m 646 438 b 408 81 646 200 569 81 b 171 438 247 81 171 200 b 408 794 171 675 247 794 b 646 438 569 794 646 675 z "},"1":{"ha":401,"x_min":0,"x_max":0,"o":"m 14 669 l 178 669 l 178 0 l 299 0 l 299 881 l 219 881 b 14 747 188 789 136 747 z "},"2":{"ha":701,"x_min":0,"x_max":0,"o":"m 222 104 l 388 240 b 649 624 514 344 649 465 b 351 892 649 772 556 892 b 44 597 165 892 44 776 b 54 515 44 571 49 543 l 174 510 b 164 589 167 536 164 563 b 350 793 164 717 231 793 b 524 618 465 793 524 721 b 283 282 524 490 421 401 l 36 69 l 36 0 l 679 0 l 679 104 z "},"3":{"ha":717,"x_min":0,"x_max":0,"o":"m 561 240 b 368 81 561 136 482 81 b 149 290 236 81 151 151 l 31 296 b 367 -17 31 101 158 -17 b 682 232 560 -17 682 86 b 494 442 682 346 601 426 b 664 644 581 456 664 532 b 364 892 664 792 557 892 b 46 579 167 892 46 760 l 163 575 b 363 794 163 714 239 794 b 544 635 483 794 544 729 b 368 485 544 522 460 485 b 285 489 329 485 304 486 l 285 390 b 368 394 306 393 333 394 b 561 240 478 394 561 340 z "},"4":{"ha":760,"x_min":0,"x_max":0,"o":"m 600 875 l 454 875 l 22 347 l 22 233 l 482 233 l 482 0 l 600 0 l 600 233 l 750 233 l 750 332 l 600 332 z m 482 767 l 482 332 l 126 332 z "},"5":{"ha":729,"x_min":0,"x_max":0,"o":"m 633 875 l 121 875 b 65 386 117 731 88 507 l 185 378 b 376 489 217 438 279 489 b 575 289 500 489 575 404 b 376 79 575 161 500 79 b 168 300 239 79 168 168 l 51 310 b 374 -17 42 115 163 -17 b 692 290 564 -17 692 108 b 390 585 692 451 589 585 b 182 496 293 585 222 544 b 214 767 192 540 213 719 l 633 767 z "},"6":{"ha":761,"x_min":0,"x_max":0,"o":"m 406 796 b 597 624 524 796 582 726 l 713 628 b 407 892 697 792 581 892 b 46 421 161 892 46 694 b 401 -17 46 153 168 -17 b 721 288 597 -17 721 107 b 414 583 721 460 603 583 b 153 404 272 583 183 506 b 406 796 151 633 228 796 z m 188 283 b 396 488 188 407 264 488 b 606 283 529 488 606 407 b 400 81 606 161 529 81 b 188 283 269 81 188 163 z "},"7":{"ha":669,"x_min":0,"x_max":0,"o":"m 507 767 b 221 0 332 582 225 310 l 351 0 b 643 801 354 297 425 574 l 643 875 l 26 875 l 26 767 z "},"8":{"ha":732,"x_min":0,"x_max":0,"o":"m 367 803 b 549 640 474 803 549 749 b 367 485 549 540 474 485 b 185 640 258 485 185 540 b 367 803 185 749 258 803 z m 367 394 b 572 238 499 394 572 340 b 367 74 572 135 499 74 b 160 238 233 74 160 135 b 367 394 160 340 233 394 z m 367 -17 b 696 232 572 -17 696 79 b 517 442 696 346 611 424 b 665 649 608 475 665 546 b 367 892 665 800 538 892 b 67 649 194 892 67 800 b 215 442 67 546 124 475 b 35 232 121 424 35 346 b 367 -17 35 79 160 -17 z "},"9":{"ha":761,"x_min":0,"x_max":0,"o":"m 356 79 b 164 251 238 79 179 149 l 49 247 b 354 -17 64 83 181 -17 b 715 454 600 -17 715 181 b 360 892 715 722 593 892 b 40 588 164 892 40 768 b 347 292 40 415 158 292 b 608 471 489 292 578 369 b 356 79 610 242 533 79 z m 574 592 b 365 388 574 468 497 388 b 156 592 232 388 156 468 b 361 794 156 714 232 794 b 574 592 492 794 574 713 z "}," ":{"ha":250,"x_min":0,"x_max":0,"o":""},"!":{"ha":265,"x_min":0,"x_max":0,"o":"m 64 0 l 203 0 l 203 139 l 64 139 z m 71 875 l 71 631 l 106 229 l 161 229 l 194 631 l 194 875 z "},"\"":{"ha":401,"x_min":0,"x_max":0,"o":"m 64 565 l 163 565 l 163 875 l 64 875 z m 239 565 l 338 565 l 338 875 l 239 875 z "},"#":{"ha":844,"x_min":0,"x_max":0,"o":"m 758 313 l 594 313 l 653 563 l 801 563 l 817 644 l 672 644 l 728 875 l 629 875 l 574 644 l 368 644 l 424 875 l 326 875 l 271 644 l 101 644 l 86 563 l 251 563 l 193 313 l 43 313 l 28 232 l 174 232 l 118 0 l 215 0 l 271 232 l 476 232 l 421 0 l 519 0 l 575 232 l 743 232 z m 349 563 l 554 563 l 496 313 l 290 313 z "},"$":{"ha":769,"x_min":0,"x_max":0,"o":"m 31 313 b 346 -14 31 119 161 4 l 346 -142 l 424 -142 l 424 -15 b 722 238 597 -8 722 83 b 483 475 722 378 642 444 l 424 486 l 424 793 b 597 572 529 772 593 694 l 704 578 b 424 888 703 754 600 867 l 424 1013 l 346 1013 l 346 892 b 56 639 165 886 56 788 b 272 406 56 503 144 429 l 346 390 l 346 79 b 138 319 228 97 143 179 z m 444 372 b 608 229 557 350 608 310 b 424 75 608 139 535 82 l 424 376 z m 168 646 b 346 800 168 742 231 796 l 346 501 l 328 506 b 168 646 228 525 168 558 z "},"%":{"ha":1017,"x_min":0,"x_max":0,"o":"m 138 661 b 243 815 138 771 179 815 b 350 661 308 815 350 771 b 243 507 350 551 308 507 b 138 661 179 507 138 551 z m 39 661 b 243 431 39 517 129 431 b 449 661 358 431 449 517 b 243 892 449 806 358 892 b 39 661 129 892 39 806 z m 879 214 b 774 60 879 104 838 60 b 668 214 710 60 668 104 b 774 368 668 324 710 368 b 879 214 838 368 879 324 z m 779 875 l 686 875 l 238 0 l 332 0 z m 979 214 b 774 444 979 358 888 444 b 568 214 660 444 568 358 b 774 -17 568 69 660 -17 b 979 214 888 -17 979 69 z "},"&":{"ha":864,"x_min":0,"x_max":0,"o":"m 699 443 b 599 222 681 360 646 283 l 385 460 b 585 697 514 525 585 586 b 368 892 585 810 508 892 b 135 676 232 892 135 804 b 226 475 135 597 174 538 b 38 224 110 413 38 342 b 322 -17 38 72 163 -17 b 586 81 424 -17 513 19 b 767 -11 657 13 704 -11 b 861 13 801 -11 836 -3 l 861 88 b 793 79 835 81 814 79 b 660 153 738 79 701 107 b 799 438 725 232 772 332 z m 325 76 b 154 226 228 76 154 135 b 285 410 154 319 203 367 l 521 150 l 524 146 b 325 76 467 103 400 76 z m 244 678 b 368 806 244 763 300 806 b 482 694 446 806 482 751 b 328 524 482 617 443 576 b 244 678 283 572 244 618 z "},"’":{"ha":243,"x_min":0,"x_max":0,"o":"m 53 743 l 118 743 b 53 660 118 682 106 664 l 53 592 b 190 744 165 593 190 647 l 190 875 l 53 875 z "},"(":{"ha":401,"x_min":0,"x_max":0,"o":"m 57 400 b 250 -117 57 211 126 18 l 365 -117 b 178 400 221 49 178 224 b 365 917 178 576 221 751 l 250 917 b 57 400 126 782 57 589 z "},")":{"ha":401,"x_min":0,"x_max":0,"o":"m 344 400 b 151 917 344 589 275 782 l 36 917 b 224 400 181 751 224 576 b 36 -117 224 224 181 49 l 151 -117 b 344 400 275 18 344 211 z "},"*":{"ha":497,"x_min":0,"x_max":0,"o":"m 19 692 l 186 638 l 85 500 l 149 450 l 250 592 l 351 453 l 417 500 l 313 640 l 479 693 l 454 769 l 289 713 l 289 888 l 208 888 l 208 711 l 46 768 z "},"+":{"ha":858,"x_min":0,"x_max":0,"o":"m 381 789 l 381 482 l 75 482 l 75 385 l 381 385 l 381 78 l 478 78 l 478 385 l 785 385 l 785 482 l 478 482 l 478 789 z "},",":{"ha":244,"x_min":0,"x_max":0,"o":"m 53 0 l 118 0 b 53 -85 118 -61 104 -81 l 53 -153 b 192 3 164 -151 192 -94 l 192 139 l 53 139 z "},"-":{"ha":478,"x_min":0,"x_max":0,"o":"m 79 303 l 399 303 l 399 406 l 79 406 z "},".":{"ha":244,"x_min":0,"x_max":0,"o":"m 53 0 l 192 0 l 192 139 l 53 139 z "},"/":{"ha":440,"x_min":0,"x_max":0,"o":"m -28 -115 l 82 -115 l 436 915 l 328 915 z "},":":{"ha":244,"x_min":0,"x_max":0,"o":"m 53 0 l 192 0 l 192 139 l 53 139 z m 53 440 l 192 440 l 192 579 l 53 579 z "},";":{"ha":244,"x_min":0,"x_max":0,"o":"m 53 0 l 118 0 b 53 -85 118 -61 104 -81 l 53 -153 b 192 3 164 -151 192 -94 l 192 139 l 53 139 z m 53 440 l 192 440 l 192 579 l 53 579 z "},"<":{"ha":643,"x_min":0,"x_max":0,"o":"m 56 368 l 597 78 l 597 192 l 144 431 l 597 669 l 597 782 l 56 493 z "},"=":{"ha":878,"x_min":0,"x_max":0,"o":"m 83 272 l 794 272 l 794 367 l 83 367 z m 83 496 l 794 496 l 794 590 l 83 590 z "},">":{"ha":643,"x_min":0,"x_max":0,"o":"m 586 493 l 46 782 l 46 669 l 497 431 l 46 192 l 46 78 l 586 368 z "},"?":{"ha":678,"x_min":0,"x_max":0,"o":"m 383 233 b 456 358 385 288 404 317 b 639 632 554 438 639 511 b 344 892 639 772 549 892 b 39 597 158 892 39 776 b 47 515 39 571 42 543 l 167 510 b 157 589 160 536 157 563 b 344 793 157 717 224 793 b 514 629 458 793 514 721 b 376 425 514 526 442 478 b 275 233 303 365 275 313 z m 256 0 l 394 0 l 394 139 l 256 139 z "},"@":{"ha":1056,"x_min":0,"x_max":0,"o":"m 771 124 b 721 204 728 124 706 143 l 804 533 l 701 533 l 681 457 b 529 544 661 507 606 544 b 271 242 367 544 271 390 b 449 47 271 119 342 47 b 619 146 526 47 586 86 b 756 47 633 90 678 47 b 1017 381 890 47 1017 153 b 575 788 1017 615 853 788 b 46 263 254 788 46 561 b 531 -196 46 -32 258 -196 b 849 -117 650 -196 756 -172 l 818 -57 b 532 -119 724 -103 638 -119 b 133 260 308 -119 133 22 b 575 711 133 525 308 711 b 929 381 800 711 929 574 b 771 124 929 201 860 124 z m 635 281 b 474 131 608 179 540 131 b 381 243 410 131 381 168 b 543 468 381 351 442 468 b 643 314 622 468 664 406 z "},"A":{"ha":886,"x_min":0,"x_max":0,"o":"m 374 875 l 17 0 l 135 0 l 238 257 l 636 257 l 742 0 l 869 0 l 506 875 z m 432 742 l 438 742 l 597 353 l 275 353 z "},"B":{"ha":821,"x_min":0,"x_max":0,"o":"m 772 240 b 582 454 772 365 689 436 b 747 642 675 471 747 540 b 442 875 747 781 658 875 l 85 875 l 85 0 l 457 0 b 772 240 661 0 772 89 z m 454 404 b 653 250 585 404 653 346 b 454 99 653 156 585 99 l 201 99 l 201 404 z m 201 776 l 446 776 b 626 636 572 776 626 719 b 446 497 626 551 572 497 l 201 497 z "},"C":{"ha":925,"x_min":0,"x_max":0,"o":"m 44 438 b 474 -17 44 168 232 -17 b 882 363 724 -17 865 138 l 765 368 b 474 86 756 207 654 86 b 168 438 296 86 168 222 b 474 789 168 653 296 789 b 765 507 654 789 756 668 l 882 513 b 474 892 865 738 724 892 b 44 438 232 892 44 707 z "},"D":{"ha":893,"x_min":0,"x_max":0,"o":"m 206 99 l 206 776 l 394 776 b 725 438 608 776 725 650 b 394 99 725 225 608 99 z m 85 0 l 401 0 b 850 438 676 0 850 164 b 401 875 850 711 676 875 l 85 875 z "},"E":{"ha":761,"x_min":0,"x_max":0,"o":"m 708 100 l 201 100 l 201 401 l 594 401 l 594 500 l 201 500 l 201 775 l 696 775 l 696 875 l 85 875 l 85 0 l 708 0 z "},"F":{"ha":717,"x_min":0,"x_max":0,"o":"m 204 0 l 204 385 l 579 385 l 579 485 l 204 485 l 204 775 l 682 775 l 682 875 l 85 875 l 85 0 z "},"G":{"ha":956,"x_min":0,"x_max":0,"o":"m 471 -17 b 769 156 607 -17 731 44 l 769 0 l 879 0 l 879 432 l 503 432 l 503 338 l 769 338 b 485 85 754 188 649 85 b 168 436 296 85 168 219 b 474 789 168 653 294 789 b 763 524 650 789 753 683 l 878 531 b 472 892 863 754 719 892 b 44 438 231 892 44 707 b 471 -17 44 165 224 -17 z "},"H":{"ha":914,"x_min":0,"x_max":0,"o":"m 206 0 l 206 401 l 708 401 l 708 0 l 829 0 l 829 875 l 708 875 l 708 500 l 206 500 l 206 875 l 85 875 l 85 0 z "},"I":{"ha":290,"x_min":0,"x_max":0,"o":"m 85 875 l 85 0 l 206 0 l 206 875 z "},"J":{"ha":708,"x_min":0,"x_max":0,"o":"m 517 875 l 517 301 b 333 82 517 154 457 82 b 131 308 207 82 140 167 l 17 301 b 331 -17 25 93 146 -17 b 636 299 517 -17 636 89 l 636 875 z "},"K":{"ha":811,"x_min":0,"x_max":0,"o":"m 814 0 l 396 490 l 772 875 l 629 875 l 206 443 l 206 875 l 85 875 l 85 0 l 206 0 l 206 313 l 307 415 l 668 0 z "},"L":{"ha":728,"x_min":0,"x_max":0,"o":"m 85 875 l 85 0 l 693 0 l 693 100 l 206 100 l 206 875 z "},"M":{"ha":1036,"x_min":0,"x_max":0,"o":"m 569 0 l 825 753 l 831 753 l 831 0 l 951 0 l 951 875 l 761 875 l 528 163 l 524 163 l 278 875 l 85 875 l 85 0 l 197 0 l 197 753 l 203 753 l 468 0 z "},"N":{"ha":886,"x_min":0,"x_max":0,"o":"m 210 875 l 85 875 l 85 0 l 197 0 l 197 703 l 706 0 l 801 0 l 801 875 l 689 875 l 689 206 z "},"O":{"ha":957,"x_min":0,"x_max":0,"o":"m 914 438 b 479 892 914 707 733 892 b 44 438 224 892 44 707 b 479 -17 44 168 224 -17 b 914 438 733 -17 914 168 z m 789 438 b 479 86 789 224 668 86 b 168 438 290 86 168 224 b 479 789 168 651 290 789 b 789 438 668 789 789 651 z "},"P":{"ha":772,"x_min":0,"x_max":0,"o":"m 204 425 l 204 776 l 400 776 b 626 601 553 776 626 714 b 400 425 626 488 553 425 z m 204 326 l 403 326 b 743 601 619 326 743 429 b 403 875 743 772 619 875 l 85 875 l 85 0 l 204 0 z "},"Q":{"ha":957,"x_min":0,"x_max":0,"o":"m 914 438 b 479 892 914 707 733 892 b 44 438 224 892 44 707 b 479 -17 44 168 224 -17 b 733 60 576 -17 664 11 l 818 -32 l 888 28 l 803 121 b 914 438 872 200 914 310 z m 789 438 b 728 204 789 342 768 263 l 633 310 l 563 249 l 663 138 b 479 85 614 103 553 85 b 168 438 290 85 168 224 b 479 789 168 651 290 789 b 789 438 668 789 789 651 z "},"R":{"ha":832,"x_min":0,"x_max":0,"o":"m 782 0 b 738 210 753 32 749 82 b 571 399 729 313 678 378 b 769 617 678 411 769 482 b 440 875 769 772 663 875 l 85 875 l 85 0 l 203 0 l 203 353 l 450 353 b 621 190 569 353 615 288 b 657 0 628 88 640 24 z m 203 449 l 203 776 l 433 776 b 649 613 582 776 649 713 b 433 449 649 504 582 449 z "},"S":{"ha":779,"x_min":0,"x_max":0,"o":"m 31 313 b 403 -17 31 101 188 -17 b 731 238 592 -17 731 76 b 490 478 731 378 650 447 l 332 508 b 174 642 231 528 174 556 b 371 799 174 739 244 799 b 607 572 515 799 603 717 l 717 578 b 369 892 715 775 589 892 b 57 635 178 892 57 788 b 275 404 57 499 146 429 l 449 371 b 615 229 563 349 615 310 b 403 78 615 133 533 78 b 139 319 256 78 146 160 z "},"T":{"ha":819,"x_min":0,"x_max":0,"o":"m 467 0 l 467 775 l 790 775 l 790 875 l 29 875 l 29 775 l 347 775 l 347 0 z "},"U":{"ha":856,"x_min":0,"x_max":0,"o":"m 428 -17 b 783 335 625 -17 783 79 l 783 875 l 665 875 l 665 332 b 428 85 665 167 581 85 b 193 333 275 85 193 167 l 193 875 l 74 875 l 74 335 b 428 -17 74 79 231 -17 z "},"V":{"ha":868,"x_min":0,"x_max":0,"o":"m 499 0 l 851 875 l 729 875 l 442 139 l 436 139 l 140 875 l 17 875 l 368 0 z "},"W":{"ha":1133,"x_min":0,"x_max":0,"o":"m 625 875 l 513 875 l 322 150 l 317 150 l 133 875 l 17 875 l 240 0 l 379 0 l 565 699 l 571 699 l 753 0 l 893 0 l 1117 875 l 1004 875 l 825 147 l 819 147 z "},"X":{"ha":844,"x_min":0,"x_max":0,"o":"m 797 875 l 663 875 l 425 543 l 188 875 l 46 875 l 354 450 l 17 0 l 151 0 l 417 363 l 686 0 l 828 0 l 489 458 z "},"Y":{"ha":831,"x_min":0,"x_max":0,"o":"m 422 456 l 149 875 l 17 875 l 358 343 l 358 0 l 474 0 l 474 343 l 814 875 l 686 875 z "},"Z":{"ha":778,"x_min":0,"x_max":0,"o":"m 194 100 l 722 786 l 722 875 l 49 875 l 49 775 l 569 775 l 42 85 l 42 0 l 736 0 l 736 100 z "},"[":{"ha":386,"x_min":0,"x_max":0,"o":"m 200 829 l 325 829 l 325 917 l 92 917 l 92 -117 l 325 -117 l 325 -29 l 200 -29 z "},"\\":{"ha":440,"x_min":0,"x_max":0,"o":"m 114 915 l 4 915 l 360 -115 l 468 -115 z "},"]":{"ha":386,"x_min":0,"x_max":0,"o":"m 185 -29 l 60 -29 l 60 -117 l 294 -117 l 294 917 l 60 917 l 60 829 l 185 829 z "},"^":{"ha":524,"x_min":0,"x_max":0,"o":"m 207 875 l 14 594 l 128 594 l 261 789 l 394 594 l 510 594 l 315 875 z "},"_":{"ha":529,"x_min":0,"x_max":0,"o":"m 28 -167 l 501 -167 l 501 -76 l 28 -76 z "},"‘":{"ha":243,"x_min":0,"x_max":0,"o":"m 190 738 l 125 738 b 190 821 125 799 138 817 l 190 888 b 53 735 78 888 53 832 l 53 606 l 190 606 z "},"a":{"ha":679,"x_min":0,"x_max":0,"o":"m 457 271 b 268 68 457 149 375 68 b 164 158 199 68 164 107 b 321 271 164 232 225 250 l 457 300 z m 568 392 b 325 624 568 546 478 624 b 68 426 182 624 92 540 l 171 413 b 324 535 189 483 236 535 b 457 400 408 535 457 483 l 457 376 l 293 343 b 49 151 147 314 49 267 b 243 -17 49 47 125 -17 b 461 107 342 -17 428 36 b 575 -12 468 35 513 -12 b 668 24 622 -12 647 3 l 668 86 b 615 72 651 76 629 72 b 568 119 586 72 568 88 z "},"b":{"ha":731,"x_min":0,"x_max":0,"o":"m 192 321 b 386 531 192 453 276 531 b 571 303 506 531 571 442 b 386 75 571 164 506 75 b 192 286 276 75 192 153 z m 192 126 b 411 -17 219 50 299 -17 b 690 303 592 -17 690 124 b 413 624 690 482 592 624 b 194 479 299 624 221 554 l 194 875 l 79 875 l 79 0 l 167 0 z "},"c":{"ha":676,"x_min":0,"x_max":0,"o":"m 40 303 b 351 -17 40 110 168 -17 b 638 249 529 -17 625 101 l 536 258 b 350 75 526 151 463 75 b 158 303 236 75 158 163 b 350 531 158 443 236 531 b 536 351 463 531 526 458 l 638 358 b 351 624 625 504 529 624 b 40 303 168 624 40 496 z "},"d":{"ha":729,"x_min":0,"x_max":0,"o":"m 538 286 b 344 75 538 153 454 75 b 158 303 225 75 158 164 b 344 531 158 442 225 531 b 538 321 454 531 538 453 z m 536 0 l 651 0 l 651 875 l 536 875 l 536 479 b 318 624 508 554 432 624 b 40 303 138 624 40 482 b 318 -17 40 124 138 -17 b 536 126 432 -17 508 51 z "},"e":{"ha":679,"x_min":0,"x_max":0,"o":"m 540 215 b 354 74 515 122 456 74 b 156 275 246 74 161 157 l 639 275 l 639 321 b 347 624 639 486 540 624 b 40 294 172 624 40 486 b 353 -17 40 106 172 -17 b 636 204 504 -17 606 67 z m 158 350 b 347 536 172 450 238 536 b 521 350 463 536 517 447 z "},"f":{"ha":396,"x_min":0,"x_max":0,"o":"m 103 524 l 103 0 l 217 0 l 217 524 l 388 524 l 388 607 l 217 607 l 217 690 b 310 808 217 763 246 808 b 415 725 365 808 400 772 l 494 753 b 304 892 467 844 408 892 b 103 678 176 892 103 807 l 103 607 l 10 607 l 10 524 z "},"g":{"ha":667,"x_min":0,"x_max":0,"o":"m 579 417 b 550 519 579 456 568 490 b 667 544 581 535 626 544 l 667 644 b 513 561 601 644 544 610 b 322 624 467 600 399 624 b 68 417 174 624 68 544 b 147 260 68 350 97 296 b 56 146 93 236 56 199 b 136 42 56 100 81 60 b 11 -86 61 28 11 -17 b 311 -250 11 -199 147 -250 b 661 -40 492 -250 661 -192 b 460 124 661 54 592 124 l 222 124 b 149 176 169 124 149 143 b 189 236 149 204 168 224 b 322 211 226 219 272 211 b 579 417 472 211 579 290 z m 121 -64 b 238 22 121 1 175 22 l 433 22 b 550 -53 504 22 550 3 b 311 -174 550 -140 450 -174 b 121 -64 199 -174 121 -140 z m 463 415 b 324 285 463 332 410 285 b 186 415 239 285 186 332 b 324 549 186 501 239 549 b 463 415 410 549 463 501 z "},"h":{"ha":689,"x_min":0,"x_max":0,"o":"m 194 349 b 358 532 194 460 267 532 b 503 367 454 532 503 468 l 503 0 l 618 0 l 618 376 b 396 624 618 518 554 624 b 194 499 306 624 224 572 l 194 875 l 79 875 l 79 0 l 194 0 z "},"i":{"ha":272,"x_min":0,"x_max":0,"o":"m 79 607 l 79 0 l 194 0 l 194 607 z m 76 744 l 196 744 l 196 875 l 76 875 z "},"j":{"ha":272,"x_min":0,"x_max":0,"o":"m 194 607 l 79 607 l 79 -92 b 19 -162 79 -140 58 -162 b -75 -132 -17 -162 -43 -153 l -103 -206 b 32 -250 -71 -231 -19 -250 b 194 -83 140 -250 194 -190 z m 76 744 l 196 744 l 196 875 l 76 875 z "},"k":{"ha":665,"x_min":0,"x_max":0,"o":"m 194 219 l 279 294 l 521 0 l 657 0 l 365 358 l 644 607 l 500 607 l 194 332 l 194 875 l 79 875 l 79 0 l 194 0 z "},"l":{"ha":272,"x_min":0,"x_max":0,"o":"m 79 875 l 79 0 l 194 0 l 194 875 z "},"m":{"ha":1076,"x_min":0,"x_max":0,"o":"m 586 492 b 388 624 560 571 496 624 b 194 499 294 624 224 572 l 194 607 l 79 607 l 79 0 l 194 0 l 194 349 b 349 532 194 460 263 532 b 483 367 442 532 483 468 l 483 0 l 599 0 l 599 349 b 754 532 599 460 668 532 b 889 367 847 532 889 468 l 889 0 l 1004 0 l 1004 376 b 790 624 1004 514 949 624 b 586 492 693 624 618 567 z "},"n":{"ha":689,"x_min":0,"x_max":0,"o":"m 194 349 b 358 532 194 460 267 532 b 503 367 454 532 503 468 l 503 0 l 618 0 l 618 376 b 396 624 618 518 554 624 b 194 499 306 624 224 572 l 194 607 l 79 607 l 79 0 l 194 0 z "},"o":{"ha":700,"x_min":0,"x_max":0,"o":"m 158 303 b 349 533 158 439 226 533 b 542 303 472 533 542 439 b 349 72 542 168 472 72 b 158 303 226 72 158 168 z m 660 303 b 349 624 660 492 528 624 b 40 303 171 624 40 492 b 349 -17 40 114 171 -17 b 660 303 528 -17 660 114 z "},"p":{"ha":731,"x_min":0,"x_max":0,"o":"m 192 321 b 386 531 192 453 276 531 b 571 303 506 531 571 442 b 386 75 571 164 506 75 b 192 286 276 75 192 153 z m 194 126 b 413 -17 221 51 299 -17 b 690 303 592 -17 690 124 b 413 624 690 482 592 624 b 194 479 299 624 221 554 l 194 607 l 79 607 l 79 -233 l 194 -233 z "},"q":{"ha":729,"x_min":0,"x_max":0,"o":"m 538 286 b 344 75 538 153 454 75 b 158 303 225 75 158 164 b 344 531 158 442 225 531 b 538 321 454 531 538 453 z m 536 -233 l 651 -233 l 651 607 l 536 607 l 536 479 b 318 624 508 554 432 624 b 40 303 138 624 40 482 b 318 -17 40 124 138 -17 b 536 126 432 -17 508 51 z "},"r":{"ha":460,"x_min":0,"x_max":0,"o":"m 453 596 b 367 624 432 614 404 624 b 194 483 279 624 217 553 l 194 607 l 79 607 l 79 0 l 194 0 l 194 321 b 347 517 194 438 260 517 b 442 492 385 517 408 510 z "},"s":{"ha":601,"x_min":0,"x_max":0,"o":"m 35 204 b 313 -17 46 54 161 -17 b 561 169 454 -17 561 49 b 367 346 561 279 489 325 l 253 364 b 160 449 190 375 160 400 b 286 539 160 504 210 539 b 460 403 389 539 446 496 l 553 408 b 286 624 542 549 447 624 b 53 438 146 624 53 549 b 235 267 53 333 121 285 l 338 249 b 453 158 413 235 453 215 b 313 68 453 97 393 68 b 132 211 208 68 143 118 z "},"t":{"ha":425,"x_min":0,"x_max":0,"o":"m 100 142 b 247 -17 100 24 161 -17 b 403 35 314 -17 358 1 l 403 113 b 289 76 368 93 328 76 b 214 156 236 76 214 101 l 214 524 l 385 524 l 385 607 l 214 607 l 214 775 l 149 775 l 131 690 b 47 593 117 632 104 604 l 8 586 l 8 524 l 100 524 z "},"u":{"ha":682,"x_min":0,"x_max":0,"o":"m 488 258 b 328 74 488 146 418 74 b 188 240 232 74 188 139 l 188 607 l 72 607 l 72 229 b 289 -17 72 88 131 -17 b 488 107 381 -17 458 35 l 488 0 l 603 0 l 603 607 l 488 607 z "},"v":{"ha":632,"x_min":0,"x_max":0,"o":"m 372 0 l 622 607 l 510 607 l 325 140 l 319 140 l 131 607 l 10 607 l 260 0 z "},"w":{"ha":892,"x_min":0,"x_max":0,"o":"m 499 607 l 401 607 l 274 147 l 268 147 l 125 607 l 10 607 l 204 0 l 315 0 l 443 453 l 449 453 l 578 0 l 689 0 l 882 607 l 775 607 l 635 147 l 629 147 z "},"x":{"ha":649,"x_min":0,"x_max":0,"o":"m 608 607 l 485 607 l 325 397 l 163 607 l 29 607 l 258 313 l 10 0 l 135 0 l 318 236 l 504 0 l 638 0 l 385 318 z "},"y":{"ha":639,"x_min":0,"x_max":0,"o":"m 279 -233 l 629 607 l 515 607 l 329 140 l 324 140 l 131 607 l 10 607 l 265 1 l 167 -233 z "},"z":{"ha":594,"x_min":0,"x_max":0,"o":"m 399 518 l 42 79 l 42 0 l 554 0 l 554 89 l 182 89 l 546 528 l 546 607 l 53 607 l 53 518 z "},"{":{"ha":407,"x_min":0,"x_max":0,"o":"m 38 356 l 72 356 b 138 254 129 356 138 331 l 138 24 b 264 -117 138 -67 175 -117 l 346 -117 l 346 -29 l 290 -29 b 247 22 258 -29 247 -10 l 247 257 b 150 400 247 336 225 386 b 247 542 225 414 247 464 l 247 778 b 290 829 247 810 258 829 l 346 829 l 346 917 l 264 917 b 138 776 175 917 138 867 l 138 546 b 72 444 138 469 129 444 l 38 444 z "},"|":{"ha":274,"x_min":0,"x_max":0,"o":"m 85 -115 l 189 -115 l 189 915 l 85 915 z "},"}":{"ha":407,"x_min":0,"x_max":0,"o":"m 369 444 l 335 444 b 269 546 278 444 269 469 l 269 776 b 143 917 269 867 232 917 l 60 917 l 60 829 l 115 829 b 158 778 149 829 158 810 l 158 542 b 257 400 158 464 182 414 b 158 257 182 386 158 336 l 158 22 b 115 -29 158 -10 149 -29 l 60 -29 l 60 -117 l 143 -117 b 269 24 232 -117 269 -67 l 269 254 b 335 356 269 331 278 356 l 369 356 z "},"~":{"ha":544,"x_min":0,"x_max":0,"o":"m 136 288 b 189 365 139 338 150 365 b 363 283 243 365 286 283 b 481 454 442 283 481 351 l 408 454 b 356 376 406 404 394 376 b 183 458 301 376 258 458 b 65 288 103 458 65 390 z "},"¡":{"ha":265,"x_min":0,"x_max":0,"o":"m 64 581 l 203 581 l 203 719 l 64 719 z m 194 -156 l 194 89 l 161 490 l 106 490 l 71 89 l 71 -156 z "},"¢":{"ha":694,"x_min":0,"x_max":0,"o":"m 321 -136 l 399 -136 l 399 -14 b 654 249 557 1 643 113 l 558 257 b 399 76 546 154 490 90 l 399 531 b 556 351 490 515 546 447 l 654 358 b 399 621 643 493 557 606 l 399 753 l 321 753 l 321 621 b 40 303 160 604 40 482 b 321 -14 40 124 158 1 z m 154 303 b 321 529 154 431 219 513 l 321 76 b 154 303 219 93 154 176 z "},"£":{"ha":785,"x_min":0,"x_max":0,"o":"m 272 624 b 431 796 272 721 318 796 b 607 596 542 796 606 728 l 713 601 b 426 892 713 783 606 892 b 154 625 256 892 154 783 b 186 478 154 567 168 521 l 81 478 l 81 399 l 222 399 b 264 236 244 350 263 300 b 169 260 235 250 204 260 b 17 121 79 260 17 201 b 165 -17 17 32 83 -17 b 332 86 246 -17 300 25 b 565 -17 393 35 464 -17 b 761 240 692 -17 765 78 l 667 244 b 556 85 667 146 638 85 b 358 174 476 85 418 129 b 364 242 363 196 364 218 b 332 399 364 300 350 350 l 518 399 l 518 478 l 301 478 b 272 624 285 524 272 569 z m 167 58 b 100 121 129 58 100 82 b 169 185 100 161 126 185 b 256 149 199 185 228 169 b 167 58 244 93 217 58 z "},"⁄":{"ha":681,"x_min":0,"x_max":0,"o":"m 672 875 l 578 875 l 14 0 l 108 0 z "},"¥":{"ha":799,"x_min":0,"x_max":0,"o":"m 104 371 l 342 371 l 342 272 l 104 272 l 104 190 l 342 190 l 342 0 l 457 0 l 457 190 l 694 190 l 694 272 l 457 272 l 457 371 l 694 371 l 694 453 l 510 453 l 788 875 l 660 875 l 406 469 l 143 875 l 11 875 l 288 453 l 104 453 z "},"ƒ":{"ha":574,"x_min":0,"x_max":0,"o":"m 390 675 b 508 800 407 753 440 800 b 554 794 522 800 538 797 l 554 879 b 486 889 531 885 508 889 b 281 697 375 889 304 808 l 244 522 l 118 522 l 118 438 l 226 438 l 151 72 b 36 -54 135 -8 104 -54 b 0 -50 26 -54 14 -53 l 0 -137 b 57 -143 19 -140 40 -143 b 260 50 178 -143 236 -67 l 340 438 l 499 438 l 499 522 l 358 522 z "},"§":{"ha":619,"x_min":0,"x_max":0,"o":"m 592 332 b 428 539 592 439 529 494 l 250 619 b 179 713 193 644 179 671 b 307 808 179 778 235 808 b 476 671 386 808 463 765 l 568 676 b 308 892 557 817 450 892 b 74 708 167 892 74 811 b 126 581 74 650 94 611 b 26 426 68 550 26 492 b 190 219 26 319 89 264 l 368 140 b 439 47 425 114 439 89 b 311 -50 439 -19 382 -50 b 142 88 232 -50 156 -7 l 50 82 b 310 -133 61 -58 168 -133 b 544 51 451 -133 544 -53 b 492 178 544 107 524 147 b 592 332 549 210 592 267 z m 214 526 l 385 444 b 489 328 450 414 489 386 b 410 231 489 276 456 246 b 404 233 408 231 406 232 l 233 314 b 129 432 168 344 129 372 b 208 529 129 483 163 511 b 214 526 210 528 211 526 z "},"'":{"ha":229,"x_min":0,"x_max":0,"o":"m 64 565 l 165 565 l 165 875 l 64 875 z "},"“":{"ha":449,"x_min":0,"x_max":0,"o":"m 190 738 l 125 738 b 190 821 125 799 138 817 l 190 888 b 53 735 78 888 53 832 l 53 606 l 190 606 z m 396 738 l 331 738 b 396 821 331 799 344 817 l 396 888 b 258 735 285 888 258 832 l 258 606 l 396 606 z "},"«":{"ha":564,"x_min":0,"x_max":0,"o":"m 64 257 l 272 78 l 272 192 l 143 303 l 272 415 l 272 528 l 64 349 z m 292 257 l 500 78 l 500 192 l 371 303 l 500 415 l 500 528 l 292 349 z "},"‹":{"ha":336,"x_min":0,"x_max":0,"o":"m 64 257 l 272 78 l 272 192 l 143 303 l 272 415 l 272 528 l 64 349 z "},"›":{"ha":336,"x_min":0,"x_max":0,"o":"m 272 349 l 64 528 l 64 415 l 193 303 l 64 192 l 64 78 l 272 257 z "},"ﬁ":{"ha":663,"x_min":0,"x_max":0,"o":"m 103 524 l 103 0 l 217 0 l 217 524 l 469 524 l 469 0 l 585 0 l 585 607 l 217 607 l 217 661 b 342 803 217 754 265 803 b 465 711 408 803 449 764 l 558 743 b 338 892 524 842 458 892 b 103 650 189 892 103 797 l 103 607 l 10 607 l 10 524 z "},"ﬂ":{"ha":663,"x_min":0,"x_max":0,"o":"m 418 857 b 294 892 386 878 344 892 b 103 683 174 892 103 813 l 103 607 l 10 607 l 10 524 l 103 524 l 103 0 l 217 0 l 217 524 l 379 524 l 379 607 l 217 607 l 217 686 b 311 804 217 758 246 804 b 392 778 343 804 368 794 z m 469 875 l 469 0 l 585 0 l 585 875 z "},"–":{"ha":694,"x_min":0,"x_max":0,"o":"m 79 311 l 615 311 l 615 396 l 79 396 z "},"†":{"ha":435,"x_min":0,"x_max":0,"o":"m 31 671 l 176 671 l 176 354 l 260 354 l 260 671 l 404 671 l 404 751 l 260 751 l 260 888 l 176 888 l 176 751 l 31 751 z "},"‡":{"ha":449,"x_min":0,"x_max":0,"o":"m 38 485 l 183 485 l 183 354 l 265 354 l 265 485 l 411 485 l 411 563 l 265 563 l 265 681 l 411 681 l 411 757 l 265 757 l 265 888 l 183 888 l 183 757 l 38 757 l 38 681 l 183 681 l 183 563 l 38 563 z "},"·":{"ha":254,"x_min":0,"x_max":0,"o":"m 57 285 l 196 285 l 196 424 l 57 424 z "},"¶":{"ha":697,"x_min":0,"x_max":0,"o":"m 338 0 l 428 0 l 428 786 l 521 786 l 521 0 l 611 0 l 611 875 l 338 875 b 28 628 139 875 28 781 b 338 381 28 475 139 381 z "},"•":{"ha":464,"x_min":0,"x_max":0,"o":"m 400 356 b 231 524 400 453 325 524 b 64 356 138 524 64 453 b 231 188 64 257 138 188 b 400 356 325 188 400 257 z "},"‚":{"ha":243,"x_min":0,"x_max":0,"o":"m 53 0 l 118 0 b 53 -83 118 -61 106 -79 l 53 -151 b 190 1 165 -150 190 -94 l 190 132 l 53 132 z "},"„":{"ha":449,"x_min":0,"x_max":0,"o":"m 258 0 l 324 0 b 258 -83 324 -61 311 -79 l 258 -151 b 396 1 371 -150 396 -94 l 396 132 l 258 132 z m 53 0 l 118 0 b 53 -83 118 -61 106 -79 l 53 -151 b 190 1 165 -150 190 -94 l 190 132 l 53 132 z "},"”":{"ha":449,"x_min":0,"x_max":0,"o":"m 258 743 l 324 743 b 258 660 324 682 311 664 l 258 592 b 396 744 371 593 396 647 l 396 875 l 258 875 z m 53 743 l 118 743 b 53 660 118 682 106 664 l 53 592 b 190 744 165 593 190 647 l 190 875 l 53 875 z "},"»":{"ha":564,"x_min":0,"x_max":0,"o":"m 272 349 l 64 528 l 64 415 l 193 303 l 64 192 l 64 78 l 272 257 z m 500 349 l 292 528 l 292 415 l 421 303 l 292 192 l 292 78 l 500 257 z "},"…":{"ha":732,"x_min":0,"x_max":0,"o":"m 53 0 l 192 0 l 192 139 l 53 139 z m 297 0 l 436 0 l 436 139 l 297 139 z m 540 0 l 679 0 l 679 139 l 540 139 z "},"‰":{"ha":1475,"x_min":0,"x_max":0,"o":"m 138 661 b 243 815 138 771 179 815 b 350 661 308 815 350 771 b 243 507 350 551 308 507 b 138 661 179 507 138 551 z m 39 661 b 243 431 39 517 129 431 b 449 661 358 431 449 517 b 243 892 449 806 358 892 b 39 661 129 892 39 806 z m 879 214 b 774 60 879 104 838 60 b 668 214 710 60 668 104 b 774 368 668 324 710 368 b 879 214 838 368 879 324 z m 979 214 b 774 444 979 358 888 444 b 568 214 660 444 568 358 b 774 -17 568 69 660 -17 b 979 214 888 -17 979 69 z m 1342 214 b 1236 60 1342 104 1301 60 b 1131 214 1172 60 1131 104 b 1236 368 1131 324 1172 368 b 1342 214 1301 368 1342 324 z m 1442 214 b 1236 444 1442 358 1351 444 b 1032 214 1122 444 1032 358 b 1236 -17 1032 69 1122 -17 b 1442 214 1351 -17 1442 69 z m 779 875 l 686 875 l 238 0 l 332 0 z "},"¿":{"ha":678,"x_min":0,"x_max":0,"o":"m 294 486 b 222 361 293 432 274 403 b 39 88 124 282 39 208 b 333 -172 39 -53 129 -172 b 639 122 519 -172 639 -57 b 631 204 639 149 636 176 l 511 210 b 521 131 518 183 521 157 b 333 -74 521 3 454 -74 b 164 90 219 -74 164 -1 b 301 294 164 193 236 242 b 403 486 375 354 403 407 z m 422 719 l 283 719 l 283 581 l 422 581 z "},"`":{"ha":694,"x_min":0,"x_max":0,"o":"m 454 700 l 379 875 l 239 875 l 374 700 z "},"´":{"ha":694,"x_min":0,"x_max":0,"o":"m 319 700 l 454 875 l 314 875 l 239 700 z "},"ˆ":{"ha":694,"x_min":0,"x_max":0,"o":"m 281 875 l 169 700 l 253 700 l 347 803 l 442 700 l 525 700 l 414 875 z "},"˜":{"ha":694,"x_min":0,"x_max":0,"o":"m 213 703 b 264 779 215 751 226 779 b 435 699 318 779 360 699 b 550 865 513 699 550 764 l 481 865 b 429 789 478 817 468 789 b 258 869 375 789 333 869 b 143 703 182 869 143 803 z "},"¯":{"ha":694,"x_min":0,"x_max":0,"o":"m 168 715 l 525 715 l 525 804 l 168 804 z "},"˘":{"ha":694,"x_min":0,"x_max":0,"o":"m 347 696 b 508 875 449 696 508 756 l 428 875 b 347 778 428 814 406 778 b 267 875 289 778 267 814 l 186 875 b 347 696 186 756 246 696 z "},"˙":{"ha":694,"x_min":0,"x_max":0,"o":"m 286 744 l 407 744 l 407 875 l 286 875 z "},"¨":{"ha":694,"x_min":0,"x_max":0,"o":"m 194 733 l 308 733 l 308 864 l 194 864 z m 386 733 l 499 733 l 499 864 l 386 864 z "},"˚":{"ha":694,"x_min":0,"x_max":0,"o":"m 288 794 b 347 854 288 829 308 854 b 407 794 386 854 407 829 b 347 733 407 758 386 733 b 288 794 308 733 288 758 z m 225 794 b 347 676 225 728 274 676 b 469 794 421 676 469 728 b 347 911 469 860 421 911 b 225 794 274 911 225 860 z "},"¸":{"ha":796,"x_min":0,"x_max":0,"o":"m 551 -142 b 393 -62 551 -65 471 -42 l 451 15 l 397 15 l 315 -104 l 343 -119 b 461 -149 389 -99 461 -94 b 392 -190 461 -178 433 -190 b 267 -146 342 -190 296 -168 l 243 -190 b 396 -243 272 -215 329 -243 b 551 -142 475 -243 551 -217 z "},"˝":{"ha":694,"x_min":0,"x_max":0,"o":"m 226 700 l 357 875 l 225 875 l 154 700 z m 410 700 l 540 875 l 408 875 l 338 700 z "},"˛":{"ha":694,"x_min":0,"x_max":0,"o":"m 368 17 b 242 -150 303 -32 242 -83 b 347 -243 242 -211 286 -243 b 451 -212 397 -243 428 -228 l 451 -149 b 378 -171 429 -160 404 -171 b 328 -129 343 -171 328 -154 b 440 17 328 -87 361 -53 z "},"ˇ":{"ha":694,"x_min":0,"x_max":0,"o":"m 414 700 l 525 875 l 442 875 l 347 771 l 253 875 l 169 875 l 281 700 z "},"—":{"ha":1389,"x_min":0,"x_max":0,"o":"m 79 311 l 1310 311 l 1310 396 l 79 396 z "},"Æ":{"ha":1360,"x_min":0,"x_max":0,"o":"m 614 875 l 17 0 l 144 0 l 324 264 l 683 264 l 683 0 l 1307 0 l 1307 100 l 800 100 l 800 401 l 1193 401 l 1193 500 l 800 500 l 800 775 l 1294 775 l 1294 875 z m 678 783 l 683 783 l 683 360 l 389 360 z "},"ª":{"ha":540,"x_min":0,"x_max":0,"o":"m 351 617 b 217 471 351 529 293 471 b 142 538 167 471 142 500 b 253 618 142 588 185 603 l 351 639 z m 453 713 b 260 893 453 835 379 893 b 54 736 143 893 71 828 l 149 725 b 257 813 161 776 194 813 b 351 718 318 813 351 776 l 351 699 l 224 674 b 39 528 113 653 39 617 b 188 397 39 446 97 397 b 354 494 265 397 328 439 b 450 400 361 436 399 400 b 529 429 489 400 510 413 l 529 485 b 488 475 515 479 500 475 b 453 511 467 475 453 486 z "},"Ł":{"ha":733,"x_min":0,"x_max":0,"o":"m 104 875 l 104 419 l 4 375 l 4 274 l 104 318 l 104 0 l 713 0 l 713 100 l 225 100 l 225 367 l 478 481 l 478 581 l 225 467 l 225 875 z "},"Ø":{"ha":957,"x_min":0,"x_max":0,"o":"m 914 438 b 793 764 914 571 869 683 l 871 860 l 807 908 l 732 815 b 479 892 663 864 576 892 b 44 438 224 892 44 707 b 165 110 44 303 89 189 l 81 3 l 144 -46 l 226 57 b 479 -17 296 10 382 -17 b 914 438 733 -17 914 168 z m 168 438 b 479 789 168 651 290 789 b 664 731 551 789 615 768 l 238 200 b 168 438 193 260 168 340 z m 789 438 b 479 86 789 224 668 86 b 294 143 407 86 344 106 l 721 672 b 789 438 764 613 789 533 z "},"Œ":{"ha":1321,"x_min":0,"x_max":0,"o":"m 1268 100 l 761 100 l 761 401 l 1154 401 l 1154 500 l 761 500 l 761 775 l 1256 775 l 1256 875 l 492 875 b 44 438 217 875 44 711 b 492 0 44 164 217 0 l 1268 0 z m 644 776 l 644 99 l 499 99 b 168 438 285 99 168 225 b 499 776 168 650 285 776 z "},"º":{"ha":553,"x_min":0,"x_max":0,"o":"m 140 644 b 276 813 140 743 188 813 b 414 644 365 813 414 743 b 276 478 414 546 365 478 b 140 644 188 478 140 546 z m 521 644 b 276 893 521 792 417 893 b 33 644 136 893 33 792 b 276 397 33 499 136 397 b 521 644 417 397 521 499 z "},"æ":{"ha":1078,"x_min":0,"x_max":0,"o":"m 321 624 b 69 428 186 624 92 542 l 168 414 b 324 535 186 483 236 535 b 461 390 408 535 461 483 l 461 350 l 361 350 b 49 154 138 350 49 274 b 258 -17 49 50 125 -17 b 499 124 381 -17 463 51 b 751 -17 549 36 633 -17 b 1035 206 901 -17 1006 67 l 939 217 b 753 74 915 122 853 74 b 553 275 650 74 561 146 l 1036 275 l 1036 321 b 746 624 1036 486 939 624 b 524 515 654 624 574 581 b 321 624 490 586 422 624 z m 271 67 b 164 161 199 67 164 108 b 365 275 164 235 210 275 l 461 275 l 461 256 b 271 67 461 132 369 67 z m 746 536 b 919 350 860 536 914 447 l 556 350 b 746 536 572 461 647 536 z "},"ı":{"ha":272,"x_min":0,"x_max":0,"o":"m 79 607 l 79 0 l 194 0 l 194 607 z "},"ł":{"ha":328,"x_min":0,"x_max":0,"o":"m 107 875 l 107 496 l 13 439 l 13 344 l 107 401 l 107 0 l 222 0 l 222 458 l 315 515 l 315 610 l 222 554 l 222 875 z "},"ø":{"ha":700,"x_min":0,"x_max":0,"o":"m 660 303 b 582 522 660 390 631 467 l 654 608 l 600 651 l 529 568 b 349 624 479 603 418 624 b 40 303 171 624 40 492 b 118 82 40 214 68 138 l 47 -1 l 101 -46 l 171 36 b 349 -17 219 1 281 -17 b 660 303 528 -17 660 114 z m 156 303 b 349 533 156 439 225 533 b 467 494 396 533 436 519 l 188 164 b 156 303 167 201 156 249 z m 544 303 b 349 72 544 168 474 72 b 233 110 301 72 264 86 l 513 440 b 544 303 533 403 544 356 z "},"œ":{"ha":1172,"x_min":0,"x_max":0,"o":"m 846 -17 b 1129 204 997 -17 1099 67 l 1033 215 b 847 74 1008 122 949 74 b 649 275 739 74 654 157 l 1132 275 l 1132 321 b 840 624 1132 486 1033 624 b 599 494 738 624 651 574 b 349 624 543 574 456 624 b 40 303 171 624 40 492 b 349 -17 40 114 171 -17 b 594 108 457 -17 539 32 b 846 -17 647 31 736 -17 z m 158 303 b 349 533 158 439 226 533 b 542 303 472 533 542 439 b 349 72 542 168 472 72 b 158 303 226 72 158 168 z m 651 350 b 840 536 665 450 731 536 b 1014 350 956 536 1010 447 z "},"ß":{"ha":675,"x_min":0,"x_max":0,"o":"m 586 675 b 340 892 586 808 492 892 b 79 618 172 892 79 776 l 79 0 l 194 0 l 194 613 b 340 806 194 735 243 806 b 476 671 431 806 476 747 b 339 528 476 579 429 528 b 286 531 315 528 303 528 l 286 438 b 342 439 308 439 315 439 b 525 264 453 440 525 372 b 363 85 525 143 454 85 b 285 100 338 85 311 92 l 285 11 b 378 -6 311 3 335 -6 b 636 258 515 -6 636 85 b 449 490 636 382 564 471 b 586 675 522 507 586 569 z "},"¹":{"ha":278,"x_min":0,"x_max":0,"o":"m 11 729 l 113 729 l 113 333 l 211 333 l 211 876 l 140 876 b 11 793 119 819 88 793 z "},"™":{"ha":876,"x_min":0,"x_max":0,"o":"m 231 514 l 231 808 l 358 808 l 358 875 l 28 875 l 28 808 l 153 808 l 153 514 z m 625 514 l 711 799 l 714 799 l 714 514 l 790 514 l 790 875 l 678 875 l 600 610 l 597 610 l 519 875 l 403 875 l 403 514 l 474 514 l 474 799 l 476 799 l 564 514 z "},"Ð":{"ha":919,"x_min":0,"x_max":0,"o":"m 11 401 l 110 401 l 110 0 l 426 0 b 875 438 701 0 875 164 b 426 875 875 711 701 875 l 110 875 l 110 500 l 11 500 z m 231 99 l 231 401 l 468 401 l 468 500 l 231 500 l 231 776 l 419 776 b 750 438 633 776 750 650 b 419 99 750 225 633 99 z "},"½":{"ha":1029,"x_min":0,"x_max":0,"o":"m 38 732 l 139 732 l 139 336 l 236 336 l 236 878 l 165 878 b 38 796 146 821 113 796 z m 775 875 l 681 875 l 117 0 l 211 0 z m 731 83 l 821 156 b 972 382 901 221 972 286 b 782 550 972 476 910 550 b 585 365 664 550 585 478 b 592 315 585 349 589 332 l 689 310 b 682 358 685 326 682 340 b 779 468 682 425 715 468 b 869 376 842 468 869 431 b 735 190 869 307 819 261 l 583 64 l 583 0 l 988 0 l 988 83 z "},"±":{"ha":858,"x_min":0,"x_max":0,"o":"m 381 842 l 381 582 l 74 582 l 74 486 l 381 486 l 381 226 l 476 226 l 476 486 l 785 486 l 785 582 l 476 582 l 476 842 z m 74 54 l 785 54 l 785 151 l 74 151 z "},"Þ":{"ha":761,"x_min":0,"x_max":0,"o":"m 204 278 l 204 628 l 389 628 b 615 453 542 628 615 565 b 389 278 615 340 542 278 z m 204 179 l 392 179 b 732 453 608 179 732 281 b 392 726 732 624 608 726 l 204 726 l 204 875 l 85 875 l 85 0 l 204 0 z "},"¼":{"ha":985,"x_min":0,"x_max":0,"o":"m 38 732 l 139 732 l 139 336 l 236 336 l 236 878 l 165 878 b 38 796 146 821 113 796 z m 863 539 l 743 539 l 489 222 l 489 133 l 765 133 l 765 0 l 863 0 l 863 133 l 946 133 l 946 213 l 863 213 z m 765 453 l 765 213 l 574 213 z m 775 875 l 681 875 l 117 0 l 211 0 z "},"÷":{"ha":858,"x_min":0,"x_max":0,"o":"m 75 385 l 785 385 l 785 482 l 75 482 z m 358 651 l 503 651 l 503 793 l 358 793 z m 358 74 l 503 74 l 503 214 l 358 214 z "},"°":{"ha":471,"x_min":0,"x_max":0,"o":"m 126 703 b 235 814 126 764 169 814 b 344 703 301 814 344 764 b 235 590 344 640 301 590 b 126 703 169 590 126 640 z m 42 703 b 235 513 42 596 126 513 b 429 703 344 513 429 596 b 235 892 429 808 344 892 b 42 703 126 892 42 808 z "},"þ":{"ha":731,"x_min":0,"x_max":0,"o":"m 192 321 b 386 531 192 453 276 531 b 571 303 506 531 571 442 b 386 75 571 164 506 75 b 192 286 276 75 192 153 z m 194 126 b 413 -17 221 51 299 -17 b 690 303 592 -17 690 124 b 413 624 690 482 592 624 b 194 479 299 624 221 554 l 194 875 l 79 875 l 79 -233 l 194 -233 z "},"¾":{"ha":1133,"x_min":0,"x_max":0,"o":"m 1011 539 l 892 539 l 638 222 l 638 133 l 914 133 l 914 0 l 1011 0 l 1011 133 l 1094 133 l 1094 213 l 1011 213 z m 914 453 l 914 213 l 722 213 z m 350 486 b 250 404 350 433 308 404 b 133 515 181 404 135 440 l 36 518 b 250 325 36 399 117 325 b 450 479 371 325 450 385 b 336 607 450 549 404 597 b 438 729 388 615 438 661 b 247 885 438 822 368 885 b 44 689 121 885 44 801 l 140 686 b 244 806 140 760 179 806 b 340 719 308 806 340 771 b 247 640 340 661 296 640 b 200 642 226 640 210 640 l 200 567 b 247 568 213 568 229 568 b 350 486 306 568 350 540 z m 924 875 l 829 875 l 264 0 l 360 0 z "},"²":{"ha":461,"x_min":0,"x_max":0,"o":"m 181 417 l 269 489 b 421 715 350 554 421 619 b 231 883 421 810 358 883 b 35 699 114 883 35 811 b 40 649 35 682 38 665 l 138 644 b 132 692 135 660 132 674 b 229 801 132 760 165 801 b 319 710 290 801 319 764 b 183 524 319 640 268 594 l 33 397 l 33 333 l 436 333 l 436 417 z "},"®":{"ha":560,"x_min":0,"x_max":0,"o":"m 400 517 b 386 578 390 526 389 539 b 338 631 383 607 367 625 b 396 696 371 633 396 658 b 297 775 396 744 363 775 l 176 775 l 176 517 l 233 517 l 233 608 l 286 608 b 329 568 315 608 328 599 b 340 517 332 540 335 524 z m 233 653 l 233 731 l 286 731 b 338 692 321 731 338 715 b 286 653 338 665 321 653 z m 526 643 b 279 892 526 788 415 892 b 33 643 144 892 33 788 b 279 396 33 500 144 396 b 526 643 415 396 526 500 z m 481 643 b 279 438 481 524 392 438 b 78 643 167 438 78 524 b 279 850 78 764 167 850 b 481 643 392 850 481 764 z "},"−":{"ha":858,"x_min":0,"x_max":0,"o":"m 75 385 l 785 385 l 785 482 l 75 482 z "},"ð":{"ha":694,"x_min":0,"x_max":0,"o":"m 199 644 l 375 710 b 533 497 451 642 507 567 b 340 603 488 564 418 603 b 39 294 172 603 39 483 b 349 -17 39 107 171 -17 b 656 319 528 -17 656 101 b 475 746 656 492 592 632 l 560 778 l 529 839 l 418 797 b 272 893 375 832 326 864 l 196 838 b 315 758 238 813 278 786 l 171 706 z m 349 74 b 157 294 228 74 157 164 b 349 517 157 426 228 517 b 542 294 471 517 542 426 b 349 74 542 164 471 74 z "},"×":{"ha":735,"x_min":0,"x_max":0,"o":"m 300 428 l 76 204 l 144 136 l 365 363 l 588 136 l 656 204 l 432 428 l 656 653 l 588 721 l 365 493 l 144 721 l 76 653 z "},"©":{"ha":1006,"x_min":0,"x_max":0,"o":"m 49 438 b 503 -17 49 174 253 -17 b 957 438 753 -17 957 174 b 503 892 957 701 753 892 b 49 438 253 892 49 701 z m 240 436 b 503 160 240 274 354 160 b 754 392 658 160 744 256 l 665 397 b 507 246 660 311 606 246 b 342 436 407 246 342 319 b 507 629 342 556 407 629 b 665 476 606 629 660 564 l 754 481 b 503 713 744 617 658 713 b 240 436 354 713 240 600 z m 114 438 b 503 828 114 664 289 828 b 892 438 717 828 892 664 b 503 47 892 211 717 47 b 114 438 289 47 114 211 z "},"Á":{"ha":886,"x_min":0,"x_max":0,"o":"m 374 875 l 17 0 l 135 0 l 238 257 l 636 257 l 742 0 l 869 0 l 506 875 z m 432 742 l 438 742 l 597 353 l 275 353 z m 472 939 l 607 1114 l 467 1114 l 392 939 z "},"Â":{"ha":886,"x_min":0,"x_max":0,"o":"m 374 875 l 17 0 l 135 0 l 238 257 l 636 257 l 742 0 l 869 0 l 506 875 z m 432 742 l 438 742 l 597 353 l 275 353 z m 365 1114 l 254 939 l 338 939 l 432 1042 l 526 939 l 610 939 l 499 1114 z "},"Ä":{"ha":886,"x_min":0,"x_max":0,"o":"m 374 875 l 17 0 l 135 0 l 238 257 l 636 257 l 742 0 l 869 0 l 506 875 z m 432 742 l 438 742 l 597 353 l 275 353 z m 281 946 l 394 946 l 394 1076 l 281 1076 z m 472 946 l 585 946 l 585 1076 l 472 1076 z "},"À":{"ha":886,"x_min":0,"x_max":0,"o":"m 374 875 l 17 0 l 135 0 l 238 257 l 636 257 l 742 0 l 869 0 l 506 875 z m 432 742 l 438 742 l 597 353 l 275 353 z m 485 939 l 410 1114 l 269 1114 l 404 939 z "},"Å":{"ha":886,"x_min":0,"x_max":0,"o":"m 374 875 l 17 0 l 135 0 l 238 257 l 636 257 l 742 0 l 869 0 l 506 875 z m 432 742 l 438 742 l 597 353 l 275 353 z m 310 1033 b 432 915 310 967 358 915 b 554 1033 506 915 554 967 b 432 1150 554 1099 506 1150 b 310 1033 358 1150 310 1099 z m 372 1033 b 432 1093 372 1068 393 1093 b 492 1033 471 1093 492 1068 b 432 972 492 997 471 972 b 372 1033 393 972 372 997 z "},"Ã":{"ha":886,"x_min":0,"x_max":0,"o":"m 374 875 l 17 0 l 135 0 l 238 257 l 636 257 l 742 0 l 869 0 l 506 875 z m 432 742 l 438 742 l 597 353 l 275 353 z m 308 938 b 360 1014 311 986 322 1014 b 531 933 414 1014 456 933 b 646 1100 608 933 646 1000 l 576 1100 b 525 1024 574 1051 564 1024 b 354 1104 471 1024 429 1104 b 239 938 278 1104 239 1039 z "},"Ç":{"ha":925,"x_min":0,"x_max":0,"o":"m 640 -142 b 482 -62 640 -65 560 -42 l 518 -14 b 882 363 740 3 865 151 l 765 368 b 474 86 756 207 654 86 b 168 438 296 86 168 222 b 474 789 168 653 296 789 b 765 507 654 789 756 668 l 882 513 b 474 892 865 738 724 892 b 44 438 232 892 44 707 b 464 -17 44 171 226 -11 l 404 -104 l 432 -119 b 550 -149 478 -99 550 -94 b 481 -190 550 -178 522 -190 b 356 -146 431 -190 385 -168 l 332 -190 b 485 -243 361 -215 418 -243 b 640 -142 564 -243 640 -217 z "},"É":{"ha":761,"x_min":0,"x_max":0,"o":"m 439 939 l 574 1114 l 433 1114 l 358 939 z m 708 100 l 201 100 l 201 401 l 594 401 l 594 500 l 201 500 l 201 775 l 696 775 l 696 875 l 85 875 l 85 0 l 708 0 z "},"Ê":{"ha":761,"x_min":0,"x_max":0,"o":"m 708 100 l 201 100 l 201 401 l 594 401 l 594 500 l 201 500 l 201 775 l 696 775 l 696 875 l 85 875 l 85 0 l 708 0 z m 332 1114 l 221 939 l 304 939 l 399 1042 l 493 939 l 576 939 l 465 1114 z "},"Ë":{"ha":761,"x_min":0,"x_max":0,"o":"m 247 946 l 361 946 l 361 1076 l 247 1076 z m 439 946 l 551 946 l 551 1076 l 439 1076 z m 708 100 l 201 100 l 201 401 l 594 401 l 594 500 l 201 500 l 201 775 l 696 775 l 696 875 l 85 875 l 85 0 l 708 0 z "},"È":{"ha":761,"x_min":0,"x_max":0,"o":"m 451 939 l 376 1114 l 236 1114 l 371 939 z m 708 100 l 201 100 l 201 401 l 594 401 l 594 500 l 201 500 l 201 775 l 696 775 l 696 875 l 85 875 l 85 0 l 708 0 z "},"Í":{"ha":290,"x_min":0,"x_max":0,"o":"m 85 875 l 85 0 l 206 0 l 206 875 z m 185 939 l 319 1114 l 179 1114 l 104 939 z "},"Î":{"ha":290,"x_min":0,"x_max":0,"o":"m 85 875 l 85 0 l 206 0 l 206 875 z m 78 1114 l -33 939 l 50 939 l 144 1042 l 239 939 l 322 939 l 211 1114 z "},"Ï":{"ha":290,"x_min":0,"x_max":0,"o":"m 85 875 l 85 0 l 206 0 l 206 875 z m -7 946 l 107 946 l 107 1076 l -7 1076 z m 185 946 l 297 946 l 297 1076 l 185 1076 z "},"Ì":{"ha":290,"x_min":0,"x_max":0,"o":"m 85 875 l 85 0 l 206 0 l 206 875 z m 197 939 l 122 1114 l -18 1114 l 117 939 z "},"Ñ":{"ha":886,"x_min":0,"x_max":0,"o":"m 321 938 b 372 1014 324 986 335 1014 b 543 933 426 1014 468 933 b 658 1100 621 933 658 1000 l 589 1100 b 538 1024 586 1051 576 1024 b 367 1104 483 1024 442 1104 b 251 938 290 1104 251 1039 z m 210 875 l 85 875 l 85 0 l 197 0 l 197 703 l 706 0 l 801 0 l 801 875 l 689 875 l 689 206 z "},"Ó":{"ha":957,"x_min":0,"x_max":0,"o":"m 518 939 l 653 1114 l 513 1114 l 438 939 z m 914 438 b 479 892 914 707 733 892 b 44 438 224 892 44 707 b 479 -17 44 168 224 -17 b 914 438 733 -17 914 168 z m 789 438 b 479 86 789 224 668 86 b 168 438 290 86 168 224 b 479 789 168 651 290 789 b 789 438 668 789 789 651 z "},"Ô":{"ha":957,"x_min":0,"x_max":0,"o":"m 914 438 b 479 892 914 707 733 892 b 44 438 224 892 44 707 b 479 -17 44 168 224 -17 b 914 438 733 -17 914 168 z m 789 438 b 479 86 789 224 668 86 b 168 438 290 86 168 224 b 479 789 168 651 290 789 b 789 438 668 789 789 651 z m 413 1114 l 301 939 l 385 939 l 479 1042 l 574 939 l 657 939 l 546 1114 z "},"Ö":{"ha":957,"x_min":0,"x_max":0,"o":"m 326 946 l 440 946 l 440 1076 l 326 1076 z m 518 946 l 631 946 l 631 1076 l 518 1076 z m 914 438 b 479 892 914 707 733 892 b 44 438 224 892 44 707 b 479 -17 44 168 224 -17 b 914 438 733 -17 914 168 z m 789 438 b 479 86 789 224 668 86 b 168 438 290 86 168 224 b 479 789 168 651 290 789 b 789 438 668 789 789 651 z "},"Ò":{"ha":957,"x_min":0,"x_max":0,"o":"m 531 939 l 456 1114 l 315 1114 l 450 939 z m 914 438 b 479 892 914 707 733 892 b 44 438 224 892 44 707 b 479 -17 44 168 224 -17 b 914 438 733 -17 914 168 z m 789 438 b 479 86 789 224 668 86 b 168 438 290 86 168 224 b 479 789 168 651 290 789 b 789 438 668 789 789 651 z "},"Õ":{"ha":957,"x_min":0,"x_max":0,"o":"m 344 938 b 396 1014 347 986 358 1014 b 567 933 450 1014 492 933 b 682 1100 644 933 682 1000 l 613 1100 b 561 1024 610 1051 600 1024 b 390 1104 507 1024 465 1104 b 275 938 314 1104 275 1039 z m 914 438 b 479 892 914 707 733 892 b 44 438 224 892 44 707 b 479 -17 44 168 224 -17 b 914 438 733 -17 914 168 z m 789 438 b 479 86 789 224 668 86 b 168 438 290 86 168 224 b 479 789 168 651 290 789 b 789 438 668 789 789 651 z "},"Š":{"ha":779,"x_min":0,"x_max":0,"o":"m 31 313 b 403 -17 31 101 188 -17 b 731 238 592 -17 731 76 b 490 478 731 378 650 447 l 332 508 b 174 642 231 528 174 556 b 371 799 174 739 244 799 b 607 572 515 799 603 717 l 717 578 b 369 892 715 775 589 892 b 57 635 178 892 57 788 b 275 404 57 499 146 429 l 449 371 b 615 229 563 349 615 310 b 403 78 615 133 533 78 b 139 319 256 78 146 160 z m 456 939 l 567 1114 l 483 1114 l 389 1011 l 294 1114 l 211 1114 l 322 939 z "},"Ú":{"ha":856,"x_min":0,"x_max":0,"o":"m 468 939 l 603 1114 l 463 1114 l 388 939 z m 428 -17 b 783 335 625 -17 783 79 l 783 875 l 665 875 l 665 332 b 428 85 665 167 581 85 b 193 333 275 85 193 167 l 193 875 l 74 875 l 74 335 b 428 -17 74 79 231 -17 z "},"Û":{"ha":856,"x_min":0,"x_max":0,"o":"m 428 -17 b 783 335 625 -17 783 79 l 783 875 l 665 875 l 665 332 b 428 85 665 167 581 85 b 193 333 275 85 193 167 l 193 875 l 74 875 l 74 335 b 428 -17 74 79 231 -17 z m 361 1114 l 250 939 l 333 939 l 428 1042 l 522 939 l 606 939 l 494 1114 z "},"Ü":{"ha":856,"x_min":0,"x_max":0,"o":"m 276 946 l 390 946 l 390 1076 l 276 1076 z m 468 946 l 581 946 l 581 1076 l 468 1076 z m 428 -17 b 783 335 625 -17 783 79 l 783 875 l 665 875 l 665 332 b 428 85 665 167 581 85 b 193 333 275 85 193 167 l 193 875 l 74 875 l 74 335 b 428 -17 74 79 231 -17 z "},"Ù":{"ha":856,"x_min":0,"x_max":0,"o":"m 481 939 l 406 1114 l 265 1114 l 400 939 z m 428 -17 b 783 335 625 -17 783 79 l 783 875 l 665 875 l 665 332 b 428 85 665 167 581 85 b 193 333 275 85 193 167 l 193 875 l 74 875 l 74 335 b 428 -17 74 79 231 -17 z "},"Ý":{"ha":831,"x_min":0,"x_max":0,"o":"m 422 456 l 149 875 l 17 875 l 358 343 l 358 0 l 474 0 l 474 343 l 814 875 l 686 875 z m 456 939 l 590 1114 l 450 1114 l 375 939 z "},"Ÿ":{"ha":831,"x_min":0,"x_max":0,"o":"m 422 456 l 149 875 l 17 875 l 358 343 l 358 0 l 474 0 l 474 343 l 814 875 l 686 875 z m 264 946 l 378 946 l 378 1076 l 264 1076 z m 456 946 l 568 946 l 568 1076 l 456 1076 z "},"Ž":{"ha":778,"x_min":0,"x_max":0,"o":"m 468 939 l 579 1114 l 496 1114 l 401 1011 l 307 1114 l 224 1114 l 335 939 z m 194 100 l 722 786 l 722 875 l 49 875 l 49 775 l 569 775 l 42 85 l 42 0 l 736 0 l 736 100 z "},"á":{"ha":679,"x_min":0,"x_max":0,"o":"m 457 271 b 268 68 457 149 375 68 b 164 158 199 68 164 107 b 321 271 164 232 225 250 l 457 300 z m 568 392 b 325 624 568 546 478 624 b 68 426 182 624 92 540 l 171 413 b 324 535 189 483 236 535 b 457 400 408 535 457 483 l 457 376 l 293 343 b 49 151 147 314 49 267 b 243 -17 49 47 125 -17 b 461 107 342 -17 428 36 b 575 -12 468 35 513 -12 b 668 24 622 -12 647 3 l 668 86 b 615 72 651 76 629 72 b 568 119 586 72 568 88 z m 375 700 l 510 875 l 369 875 l 294 700 z "},"â":{"ha":679,"x_min":0,"x_max":0,"o":"m 457 271 b 268 68 457 149 375 68 b 164 158 199 68 164 107 b 321 271 164 232 225 250 l 457 300 z m 568 392 b 325 624 568 546 478 624 b 68 426 182 624 92 540 l 171 413 b 324 535 189 483 236 535 b 457 400 408 535 457 483 l 457 376 l 293 343 b 49 151 147 314 49 267 b 243 -17 49 47 125 -17 b 461 107 342 -17 428 36 b 575 -12 468 35 513 -12 b 668 24 622 -12 647 3 l 668 86 b 615 72 651 76 629 72 b 568 119 586 72 568 88 z m 265 875 l 154 700 l 238 700 l 332 803 l 426 700 l 510 700 l 399 875 z "},"ä":{"ha":679,"x_min":0,"x_max":0,"o":"m 457 271 b 268 68 457 149 375 68 b 164 158 199 68 164 107 b 321 271 164 232 225 250 l 457 300 z m 568 392 b 325 624 568 546 478 624 b 68 426 182 624 92 540 l 171 413 b 324 535 189 483 236 535 b 457 400 408 535 457 483 l 457 376 l 293 343 b 49 151 147 314 49 267 b 243 -17 49 47 125 -17 b 461 107 342 -17 428 36 b 575 -12 468 35 513 -12 b 668 24 622 -12 647 3 l 668 86 b 615 72 651 76 629 72 b 568 119 586 72 568 88 z m 181 733 l 294 733 l 294 864 l 181 864 z m 372 733 l 485 733 l 485 864 l 372 864 z "},"à":{"ha":679,"x_min":0,"x_max":0,"o":"m 457 271 b 268 68 457 149 375 68 b 164 158 199 68 164 107 b 321 271 164 232 225 250 l 457 300 z m 568 392 b 325 624 568 546 478 624 b 68 426 182 624 92 540 l 171 413 b 324 535 189 483 236 535 b 457 400 408 535 457 483 l 457 376 l 293 343 b 49 151 147 314 49 267 b 243 -17 49 47 125 -17 b 461 107 342 -17 428 36 b 575 -12 468 35 513 -12 b 668 24 622 -12 647 3 l 668 86 b 615 72 651 76 629 72 b 568 119 586 72 568 88 z m 383 700 l 308 875 l 168 875 l 303 700 z "},"å":{"ha":679,"x_min":0,"x_max":0,"o":"m 457 271 b 268 68 457 149 375 68 b 164 158 199 68 164 107 b 321 271 164 232 225 250 l 457 300 z m 568 392 b 325 624 568 546 478 624 b 68 426 182 624 92 540 l 171 413 b 324 535 189 483 236 535 b 457 400 408 535 457 483 l 457 376 l 293 343 b 49 151 147 314 49 267 b 243 -17 49 47 125 -17 b 461 107 342 -17 428 36 b 575 -12 468 35 513 -12 b 668 24 622 -12 647 3 l 668 86 b 615 72 651 76 629 72 b 568 119 586 72 568 88 z m 272 794 b 332 854 272 829 293 854 b 392 794 371 854 392 829 b 332 733 392 758 371 733 b 272 794 293 733 272 758 z m 210 794 b 332 676 210 728 258 676 b 454 794 406 676 454 728 b 332 911 454 860 406 911 b 210 794 258 911 210 860 z "},"ã":{"ha":679,"x_min":0,"x_max":0,"o":"m 457 271 b 268 68 457 149 375 68 b 164 158 199 68 164 107 b 321 271 164 232 225 250 l 457 300 z m 568 392 b 325 624 568 546 478 624 b 68 426 182 624 92 540 l 171 413 b 324 535 189 483 236 535 b 457 400 408 535 457 483 l 457 376 l 293 343 b 49 151 147 314 49 267 b 243 -17 49 47 125 -17 b 461 107 342 -17 428 36 b 575 -12 468 35 513 -12 b 668 24 622 -12 647 3 l 668 86 b 615 72 651 76 629 72 b 568 119 586 72 568 88 z m 203 703 b 254 779 206 751 217 779 b 425 699 308 779 350 699 b 540 865 503 699 540 764 l 471 865 b 419 789 468 817 458 789 b 249 869 365 789 324 869 b 133 703 172 869 133 803 z "},"ç":{"ha":676,"x_min":0,"x_max":0,"o":"m 497 -142 b 339 -62 497 -65 417 -42 l 374 -15 b 638 249 538 -6 625 107 l 536 258 b 350 75 526 151 463 75 b 158 303 236 75 158 163 b 350 531 158 443 236 531 b 536 351 463 531 526 458 l 638 358 b 351 624 625 504 529 624 b 40 303 168 624 40 496 b 321 -15 40 119 154 -3 l 261 -104 l 289 -119 b 407 -149 335 -99 407 -94 b 338 -190 407 -178 379 -190 b 213 -146 288 -190 242 -168 l 189 -190 b 342 -243 218 -215 275 -243 b 497 -142 421 -243 497 -217 z "},"é":{"ha":679,"x_min":0,"x_max":0,"o":"m 383 700 l 518 875 l 378 875 l 303 700 z m 540 215 b 354 74 515 122 456 74 b 156 275 246 74 161 157 l 639 275 l 639 321 b 347 624 639 486 540 624 b 40 294 172 624 40 486 b 353 -17 40 106 172 -17 b 636 204 504 -17 606 67 z m 158 350 b 347 536 172 450 238 536 b 521 350 463 536 517 447 z "},"ê":{"ha":679,"x_min":0,"x_max":0,"o":"m 282 875 l 171 700 l 254 700 l 349 803 l 443 700 l 526 700 l 415 875 z m 540 215 b 354 74 515 122 456 74 b 156 275 246 74 161 157 l 639 275 l 639 321 b 347 624 639 486 540 624 b 40 294 172 624 40 486 b 353 -17 40 106 172 -17 b 636 204 504 -17 606 67 z m 158 350 b 347 536 172 450 238 536 b 521 350 463 536 517 447 z "},"ë":{"ha":679,"x_min":0,"x_max":0,"o":"m 197 733 l 311 733 l 311 864 l 197 864 z m 389 733 l 501 733 l 501 864 l 389 864 z m 540 215 b 354 74 515 122 456 74 b 156 275 246 74 161 157 l 639 275 l 639 321 b 347 624 639 486 540 624 b 40 294 172 624 40 486 b 353 -17 40 106 172 -17 b 636 204 504 -17 606 67 z m 158 350 b 347 536 172 450 238 536 b 521 350 463 536 517 447 z "},"è":{"ha":679,"x_min":0,"x_max":0,"o":"m 540 215 b 354 74 515 122 456 74 b 156 275 246 74 161 157 l 639 275 l 639 321 b 347 624 639 486 540 624 b 40 294 172 624 40 486 b 353 -17 40 106 172 -17 b 636 204 504 -17 606 67 z m 158 350 b 347 536 172 450 238 536 b 521 350 463 536 517 447 z m 401 700 l 326 875 l 186 875 l 321 700 z "},"í":{"ha":272,"x_min":0,"x_max":0,"o":"m 178 700 l 313 875 l 172 875 l 97 700 z m 79 607 l 79 0 l 194 0 l 194 607 z "},"î":{"ha":272,"x_min":0,"x_max":0,"o":"m 69 875 l -42 700 l 42 700 l 136 803 l 231 700 l 314 700 l 203 875 z m 79 607 l 79 0 l 194 0 l 194 607 z "},"ï":{"ha":272,"x_min":0,"x_max":0,"o":"m -17 733 l 97 733 l 97 864 l -17 864 z m 175 733 l 288 733 l 288 864 l 175 864 z m 79 607 l 79 0 l 194 0 l 194 607 z "},"ì":{"ha":272,"x_min":0,"x_max":0,"o":"m 79 607 l 79 0 l 194 0 l 194 607 z m 186 700 l 111 875 l -29 875 l 106 700 z "},"ñ":{"ha":689,"x_min":0,"x_max":0,"o":"m 194 349 b 358 532 194 460 267 532 b 503 367 454 532 503 468 l 503 0 l 618 0 l 618 376 b 396 624 618 518 554 624 b 194 499 306 624 224 572 l 194 607 l 79 607 l 79 0 l 194 0 z m 222 703 b 274 779 225 751 236 779 b 444 699 328 779 369 699 b 560 865 522 699 560 764 l 490 865 b 439 789 488 817 478 789 b 268 869 385 789 343 869 b 153 703 192 869 153 803 z "},"ó":{"ha":700,"x_min":0,"x_max":0,"o":"m 392 700 l 526 875 l 386 875 l 311 700 z m 158 303 b 349 533 158 439 226 533 b 542 303 472 533 542 439 b 349 72 542 168 472 72 b 158 303 226 72 158 168 z m 660 303 b 349 624 660 492 528 624 b 40 303 171 624 40 492 b 349 -17 40 114 171 -17 b 660 303 528 -17 660 114 z "},"ô":{"ha":700,"x_min":0,"x_max":0,"o":"m 282 875 l 171 700 l 254 700 l 349 803 l 443 700 l 526 700 l 415 875 z m 158 303 b 349 533 158 439 226 533 b 542 303 472 533 542 439 b 349 72 542 168 472 72 b 158 303 226 72 158 168 z m 660 303 b 349 624 660 492 528 624 b 40 303 171 624 40 492 b 349 -17 40 114 171 -17 b 660 303 528 -17 660 114 z "},"ö":{"ha":700,"x_min":0,"x_max":0,"o":"m 197 733 l 311 733 l 311 864 l 197 864 z m 389 733 l 501 733 l 501 864 l 389 864 z m 158 303 b 349 533 158 439 226 533 b 542 303 472 533 542 439 b 349 72 542 168 472 72 b 158 303 226 72 158 168 z m 660 303 b 349 624 660 492 528 624 b 40 303 171 624 40 492 b 349 -17 40 114 171 -17 b 660 303 528 -17 660 114 z "},"ò":{"ha":700,"x_min":0,"x_max":0,"o":"m 158 303 b 349 533 158 439 226 533 b 542 303 472 533 542 439 b 349 72 542 168 472 72 b 158 303 226 72 158 168 z m 660 303 b 349 624 660 492 528 624 b 40 303 171 624 40 492 b 349 -17 40 114 171 -17 b 660 303 528 -17 660 114 z m 400 700 l 325 875 l 185 875 l 319 700 z "},"õ":{"ha":700,"x_min":0,"x_max":0,"o":"m 158 303 b 349 533 158 439 226 533 b 542 303 472 533 542 439 b 349 72 542 168 472 72 b 158 303 226 72 158 168 z m 660 303 b 349 624 660 492 528 624 b 40 303 171 624 40 492 b 349 -17 40 114 171 -17 b 660 303 528 -17 660 114 z m 222 703 b 274 779 225 751 236 779 b 444 699 328 779 369 699 b 560 865 522 699 560 764 l 490 865 b 439 789 488 817 478 789 b 268 869 385 789 343 869 b 153 703 192 869 153 803 z "},"š":{"ha":601,"x_min":0,"x_max":0,"o":"m 368 700 l 479 875 l 396 875 l 301 771 l 207 875 l 124 875 l 235 700 z m 35 204 b 313 -17 46 54 161 -17 b 561 169 454 -17 561 49 b 367 346 561 279 489 325 l 253 364 b 160 449 190 375 160 400 b 286 539 160 504 210 539 b 460 403 389 539 446 496 l 553 408 b 286 624 542 549 447 624 b 53 438 146 624 53 549 b 235 267 53 333 121 285 l 338 249 b 453 158 413 235 453 215 b 313 68 453 97 393 68 b 132 211 208 68 143 118 z "},"ú":{"ha":682,"x_min":0,"x_max":0,"o":"m 383 700 l 518 875 l 378 875 l 303 700 z m 488 258 b 328 74 488 146 418 74 b 188 240 232 74 188 139 l 188 607 l 72 607 l 72 229 b 289 -17 72 88 131 -17 b 488 107 381 -17 458 35 l 488 0 l 603 0 l 603 607 l 488 607 z "},"û":{"ha":682,"x_min":0,"x_max":0,"o":"m 275 875 l 164 700 l 247 700 l 342 803 l 436 700 l 519 700 l 408 875 z m 488 258 b 328 74 488 146 418 74 b 188 240 232 74 188 139 l 188 607 l 72 607 l 72 229 b 289 -17 72 88 131 -17 b 488 107 381 -17 458 35 l 488 0 l 603 0 l 603 607 l 488 607 z "},"ü":{"ha":682,"x_min":0,"x_max":0,"o":"m 189 733 l 303 733 l 303 864 l 189 864 z m 381 733 l 493 733 l 493 864 l 381 864 z m 488 258 b 328 74 488 146 418 74 b 188 240 232 74 188 139 l 188 607 l 72 607 l 72 229 b 289 -17 72 88 131 -17 b 488 107 381 -17 458 35 l 488 0 l 603 0 l 603 607 l 488 607 z "},"ù":{"ha":682,"x_min":0,"x_max":0,"o":"m 488 258 b 328 74 488 146 418 74 b 188 240 232 74 188 139 l 188 607 l 72 607 l 72 229 b 289 -17 72 88 131 -17 b 488 107 381 -17 458 35 l 488 0 l 603 0 l 603 607 l 488 607 z m 392 700 l 317 875 l 176 875 l 311 700 z "},"ý":{"ha":639,"x_min":0,"x_max":0,"o":"m 279 -233 l 629 607 l 515 607 l 329 140 l 324 140 l 131 607 l 10 607 l 265 1 l 167 -233 z m 361 700 l 496 875 l 356 875 l 281 700 z "},"ÿ":{"ha":639,"x_min":0,"x_max":0,"o":"m 279 -233 l 629 607 l 515 607 l 329 140 l 324 140 l 131 607 l 10 607 l 265 1 l 167 -233 z m 167 733 l 281 733 l 281 864 l 167 864 z m 358 733 l 471 733 l 471 864 l 358 864 z "},"ž":{"ha":594,"x_min":0,"x_max":0,"o":"m 371 700 l 482 875 l 399 875 l 304 771 l 210 875 l 126 875 l 238 700 z m 399 518 l 42 79 l 42 0 l 554 0 l 554 89 l 182 89 l 546 528 l 546 607 l 53 607 l 53 518 z "},"€":{"ha":851,"x_min":0,"x_max":0,"o":"m 21 311 l 114 311 b 464 -17 150 110 278 -17 b 806 349 672 -17 792 135 l 693 354 b 464 85 682 193 610 85 b 233 311 336 85 260 171 l 460 311 l 474 386 l 224 386 b 222 438 222 403 222 419 b 224 485 222 453 222 469 l 486 485 l 500 560 l 232 560 b 464 790 258 703 335 790 b 693 521 610 790 683 672 l 806 526 b 464 892 793 736 675 892 b 113 560 276 892 149 763 l 21 560 l 21 485 l 104 485 b 103 438 103 469 103 453 b 104 386 103 419 103 403 l 21 386 z "},"≈":{"ha":878,"x_min":0,"x_max":0,"o":"m 83 457 b 275 519 153 501 217 519 b 599 458 397 519 478 458 b 794 522 657 458 722 475 l 794 618 b 599 556 722 572 657 556 b 275 617 478 556 397 617 b 83 553 217 617 153 597 z m 83 249 b 275 313 153 293 217 313 b 599 250 397 313 478 250 b 794 314 657 250 722 268 l 794 410 b 599 346 722 364 657 346 b 275 408 478 346 397 408 b 83 344 217 408 153 390 z "},"≠":{"ha":878,"x_min":0,"x_max":0,"o":"m 83 496 l 436 496 l 338 367 l 83 367 l 83 274 l 268 274 l 140 104 l 240 104 l 368 274 l 794 274 l 794 367 l 438 367 l 536 496 l 794 496 l 794 589 l 606 589 l 738 763 l 638 763 l 506 589 l 83 589 z "},"≤":{"ha":651,"x_min":0,"x_max":0,"o":"m 54 54 l 597 54 l 597 151 l 54 151 z m 54 468 l 597 221 l 597 326 l 158 525 l 597 722 l 597 828 l 54 582 z "},"≥":{"ha":651,"x_min":0,"x_max":0,"o":"m 597 151 l 54 151 l 54 54 l 597 54 z m 597 582 l 54 828 l 54 722 l 493 525 l 54 326 l 54 221 l 597 468 z "},"³":{"ha":471,"x_min":0,"x_max":0,"o":"m 344 485 b 244 403 344 432 303 403 b 128 514 175 403 131 439 l 31 517 b 244 324 31 397 111 324 b 444 478 365 324 444 383 b 331 606 444 547 399 596 b 432 728 382 614 432 661 b 242 883 432 821 364 883 b 40 688 115 883 40 800 l 135 685 b 239 804 135 758 174 804 b 335 719 303 804 335 771 b 242 639 335 660 290 639 b 194 640 221 639 206 639 l 194 565 b 242 568 207 567 224 568 b 344 485 300 568 344 539 z "},"Ţ":{"ha":819,"x_min":0,"x_max":0,"o":"m 347 -167 l 401 -167 b 347 -219 400 -204 386 -219 l 347 -268 b 472 -146 443 -268 472 -217 l 472 -71 l 347 -71 z m 467 0 l 467 775 l 790 775 l 790 875 l 29 875 l 29 775 l 347 775 l 347 0 z "},"ţ":{"ha":425,"x_min":0,"x_max":0,"o":"m 189 -167 l 243 -167 b 189 -219 242 -204 228 -219 l 189 -268 b 314 -146 285 -268 314 -217 l 314 -71 l 189 -71 z m 100 142 b 247 -17 100 24 161 -17 b 403 35 314 -17 358 1 l 403 113 b 289 76 368 93 328 76 b 214 156 236 76 214 101 l 214 524 l 385 524 l 385 607 l 214 607 l 214 775 l 149 775 l 131 690 b 47 593 117 632 104 604 l 8 586 l 8 524 l 100 524 z "},"ȷ":{"ha":272,"x_min":0,"x_max":0,"o":"m 194 607 l 79 607 l 79 -92 b 19 -162 79 -140 58 -162 b -75 -132 -17 -162 -43 -153 l -103 -206 b 32 -250 -71 -231 -19 -250 b 194 -83 140 -250 194 -190 z "},"℗":{"ha":1006,"x_min":0,"x_max":0,"o":"m 49 438 b 503 -17 49 174 253 -17 b 957 438 753 -17 957 174 b 503 892 957 701 753 892 b 49 438 253 892 49 701 z m 114 438 b 503 828 114 664 289 828 b 892 438 717 828 892 664 b 503 47 892 211 717 47 b 114 438 289 47 114 211 z m 421 436 l 421 619 l 525 619 b 649 528 608 619 649 586 b 525 436 649 469 608 436 z m 421 360 l 539 360 b 740 528 671 360 740 429 b 539 696 740 626 671 696 l 331 696 l 331 176 l 421 176 z "},"ﬀ":{"ha":763,"x_min":0,"x_max":0,"o":"m 469 524 l 469 0 l 583 0 l 583 524 l 754 524 l 754 607 l 583 607 l 583 690 b 676 808 583 763 613 808 b 782 725 732 808 767 772 l 861 753 b 671 892 833 844 776 892 b 469 675 543 892 469 804 l 469 607 l 217 607 l 217 674 b 313 792 217 747 247 792 b 414 757 351 792 385 778 l 444 833 b 297 878 411 856 368 878 b 103 672 181 878 103 799 l 103 607 l 10 607 l 10 524 l 103 524 l 103 0 l 217 0 l 217 524 z "},"ﬃ":{"ha":1029,"x_min":0,"x_max":0,"o":"m 469 524 l 469 0 l 583 0 l 583 524 l 836 524 l 836 0 l 951 0 l 951 607 l 583 607 l 583 661 b 708 803 583 754 632 803 b 833 711 775 803 815 764 l 925 743 b 704 892 890 842 825 892 b 469 650 556 892 469 797 l 469 607 l 217 607 l 217 674 b 313 792 217 747 247 792 b 414 757 351 792 385 778 l 444 833 b 297 878 411 856 368 878 b 103 672 181 878 103 799 l 103 607 l 10 607 l 10 524 l 103 524 l 103 0 l 217 0 l 217 524 z "},"ﬄ":{"ha":1029,"x_min":0,"x_max":0,"o":"m 469 524 l 469 0 l 583 0 l 583 524 l 746 524 l 746 607 l 583 607 l 583 686 b 678 804 583 758 613 804 b 758 778 710 804 735 794 l 785 857 b 661 892 753 878 711 892 b 469 683 542 892 469 813 l 469 607 l 217 607 l 217 674 b 313 792 217 747 247 792 b 414 757 351 792 385 778 l 444 833 b 297 878 411 856 368 878 b 103 672 181 878 103 799 l 103 607 l 10 607 l 10 524 l 103 524 l 103 0 l 217 0 l 217 524 z m 836 875 l 836 0 l 951 0 l 951 875 z "},"Ă":{"ha":886,"x_min":0,"x_max":0,"o":"m 374 875 l 17 0 l 135 0 l 238 257 l 636 257 l 742 0 l 869 0 l 506 875 z m 432 742 l 438 742 l 597 353 l 275 353 z m 432 935 b 593 1114 533 935 593 994 l 513 1114 b 432 1017 513 1053 490 1017 b 351 1114 374 1017 351 1053 l 271 1114 b 432 935 271 994 331 935 z "},"Ā":{"ha":886,"x_min":0,"x_max":0,"o":"m 374 875 l 17 0 l 135 0 l 238 257 l 636 257 l 742 0 l 869 0 l 506 875 z m 432 742 l 438 742 l 597 353 l 275 353 z m 253 949 l 613 949 l 613 1036 l 253 1036 z "},"Ą":{"ha":886,"x_min":0,"x_max":0,"o":"m 374 875 l 17 0 l 135 0 l 238 257 l 636 257 l 742 3 l 761 0 b 657 -150 704 -43 657 -90 b 763 -243 657 -211 701 -243 b 867 -212 813 -243 843 -228 l 867 -149 b 793 -171 844 -160 819 -171 b 743 -129 758 -171 743 -154 b 869 0 743 -90 782 -53 l 506 875 z m 432 742 l 438 742 l 597 353 l 276 353 z "},"Ǻ":{"ha":886,"x_min":0,"x_max":0,"o":"m 374 875 l 17 0 l 135 0 l 238 257 l 636 257 l 742 0 l 869 0 l 506 875 z m 432 742 l 438 742 l 597 353 l 275 353 z m 318 1018 b 440 908 318 956 367 908 b 564 1018 515 908 564 956 b 440 1129 564 1081 515 1129 b 318 1018 367 1129 318 1081 z m 482 1158 l 599 1293 l 458 1293 l 401 1158 z m 381 1018 b 440 1074 381 1051 400 1074 b 501 1018 481 1074 501 1051 b 440 963 501 985 481 963 b 381 1018 400 963 381 985 z "},"Ǽ":{"ha":1360,"x_min":0,"x_max":0,"o":"m 614 875 l 17 0 l 144 0 l 324 264 l 683 264 l 683 0 l 1307 0 l 1307 100 l 800 100 l 800 401 l 1193 401 l 1193 500 l 800 500 l 800 775 l 1294 775 l 1294 875 z m 678 783 l 683 783 l 683 360 l 389 360 z m 964 939 l 1099 1114 l 958 1114 l 883 939 z "},"Ć":{"ha":925,"x_min":0,"x_max":0,"o":"m 44 438 b 474 -17 44 168 232 -17 b 882 363 724 -17 865 138 l 765 368 b 474 86 756 207 654 86 b 168 438 296 86 168 222 b 474 789 168 653 296 789 b 765 507 654 789 756 668 l 882 513 b 474 892 865 738 724 892 b 44 438 232 892 44 707 z m 525 939 l 660 1114 l 519 1114 l 444 939 z "},"Č":{"ha":925,"x_min":0,"x_max":0,"o":"m 44 438 b 474 -17 44 168 232 -17 b 882 363 724 -17 865 138 l 765 368 b 474 86 756 207 654 86 b 168 438 296 86 168 222 b 474 789 168 653 296 789 b 765 507 654 789 756 668 l 882 513 b 474 892 865 738 724 892 b 44 438 232 892 44 707 z m 550 939 l 661 1114 l 578 1114 l 483 1011 l 389 1114 l 306 1114 l 417 939 z "},"Ĉ":{"ha":925,"x_min":0,"x_max":0,"o":"m 44 438 b 474 -17 44 168 232 -17 b 882 363 724 -17 865 138 l 765 368 b 474 86 756 207 654 86 b 168 438 296 86 168 222 b 474 789 168 653 296 789 b 765 507 654 789 756 668 l 882 513 b 474 892 865 738 724 892 b 44 438 232 892 44 707 z m 417 1114 l 306 939 l 389 939 l 483 1042 l 578 939 l 661 939 l 550 1114 z "},"Ċ":{"ha":925,"x_min":0,"x_max":0,"o":"m 424 946 l 544 946 l 544 1076 l 424 1076 z m 44 438 b 474 -17 44 168 232 -17 b 882 363 724 -17 865 138 l 765 368 b 474 86 756 207 654 86 b 168 438 296 86 168 222 b 474 789 168 653 296 789 b 765 507 654 789 756 668 l 882 513 b 474 892 865 738 724 892 b 44 438 232 892 44 707 z "},"Ď":{"ha":893,"x_min":0,"x_max":0,"o":"m 481 939 l 592 1114 l 508 1114 l 414 1011 l 319 1114 l 236 1114 l 347 939 z m 206 99 l 206 776 l 394 776 b 725 438 608 776 725 650 b 394 99 725 225 608 99 z m 85 0 l 401 0 b 850 438 676 0 850 164 b 401 875 850 711 676 875 l 85 875 z "},"Đ":{"ha":919,"x_min":0,"x_max":0,"o":"m 11 401 l 110 401 l 110 0 l 426 0 b 875 438 701 0 875 164 b 426 875 875 711 701 875 l 110 875 l 110 500 l 11 500 z m 231 99 l 231 401 l 468 401 l 468 500 l 231 500 l 231 776 l 419 776 b 750 438 633 776 750 650 b 419 99 750 225 633 99 z "},"Ĕ":{"ha":761,"x_min":0,"x_max":0,"o":"m 399 935 b 560 1114 500 935 560 994 l 479 1114 b 399 1017 479 1053 457 1017 b 318 1114 340 1017 318 1053 l 238 1114 b 399 935 238 994 297 935 z m 708 100 l 201 100 l 201 401 l 594 401 l 594 500 l 201 500 l 201 775 l 696 775 l 696 875 l 85 875 l 85 0 l 708 0 z "},"Ě":{"ha":761,"x_min":0,"x_max":0,"o":"m 465 939 l 576 1114 l 493 1114 l 399 1011 l 304 1114 l 221 1114 l 332 939 z m 708 100 l 201 100 l 201 401 l 594 401 l 594 500 l 201 500 l 201 775 l 696 775 l 696 875 l 85 875 l 85 0 l 708 0 z "},"Ė":{"ha":761,"x_min":0,"x_max":0,"o":"m 339 946 l 460 946 l 460 1076 l 339 1076 z m 708 100 l 201 100 l 201 401 l 594 401 l 594 500 l 201 500 l 201 775 l 696 775 l 696 875 l 85 875 l 85 0 l 708 0 z "},"Ē":{"ha":761,"x_min":0,"x_max":0,"o":"m 219 949 l 579 949 l 579 1036 l 219 1036 z m 708 100 l 201 100 l 201 401 l 594 401 l 594 500 l 201 500 l 201 775 l 696 775 l 696 875 l 85 875 l 85 0 l 708 0 z "},"Ę":{"ha":761,"x_min":0,"x_max":0,"o":"m 708 100 l 201 100 l 201 401 l 594 401 l 594 500 l 201 500 l 201 775 l 696 775 l 696 875 l 85 875 l 85 0 l 556 0 b 451 -150 499 -43 451 -90 b 557 -243 451 -211 496 -243 b 661 -212 607 -243 638 -228 l 661 -149 b 588 -171 639 -160 614 -171 b 538 -129 553 -171 538 -154 b 631 0 538 -90 565 -58 l 708 0 z "},"Ğ":{"ha":956,"x_min":0,"x_max":0,"o":"m 486 935 b 647 1114 588 935 647 994 l 567 1114 b 486 1017 567 1053 544 1017 b 406 1114 428 1017 406 1053 l 325 1114 b 486 935 325 994 385 935 z m 471 -17 b 769 156 607 -17 731 44 l 769 0 l 879 0 l 879 432 l 503 432 l 503 338 l 769 338 b 485 85 754 188 649 85 b 168 436 296 85 168 219 b 474 789 168 653 294 789 b 763 524 650 789 753 683 l 878 531 b 472 892 863 754 719 892 b 44 438 231 892 44 707 b 471 -17 44 165 224 -17 z "},"Ĝ":{"ha":956,"x_min":0,"x_max":0,"o":"m 471 -17 b 769 156 607 -17 731 44 l 769 0 l 879 0 l 879 432 l 503 432 l 503 338 l 769 338 b 485 85 754 188 649 85 b 168 436 296 85 168 219 b 474 789 168 653 294 789 b 763 524 650 789 753 683 l 878 531 b 472 892 863 754 719 892 b 44 438 231 892 44 707 b 471 -17 44 165 224 -17 z m 419 1114 l 308 939 l 392 939 l 486 1042 l 581 939 l 664 939 l 553 1114 z "},"Ģ":{"ha":956,"x_min":0,"x_max":0,"o":"m 425 -167 l 479 -167 b 425 -219 478 -204 464 -219 l 425 -268 b 550 -146 521 -268 550 -217 l 550 -71 l 425 -71 z m 471 -17 b 769 156 607 -17 731 44 l 769 0 l 879 0 l 879 432 l 503 432 l 503 338 l 769 338 b 485 85 754 188 649 85 b 168 436 296 85 168 219 b 474 789 168 653 294 789 b 763 524 650 789 753 683 l 878 531 b 472 892 863 754 719 892 b 44 438 231 892 44 707 b 471 -17 44 165 224 -17 z "},"Ġ":{"ha":956,"x_min":0,"x_max":0,"o":"m 426 946 l 547 946 l 547 1076 l 426 1076 z m 471 -17 b 769 156 607 -17 731 44 l 769 0 l 879 0 l 879 432 l 503 432 l 503 338 l 769 338 b 485 85 754 188 649 85 b 168 436 296 85 168 219 b 474 789 168 653 294 789 b 763 524 650 789 753 683 l 878 531 b 472 892 863 754 719 892 b 44 438 231 892 44 707 b 471 -17 44 165 224 -17 z "},"Ħ":{"ha":965,"x_min":0,"x_max":0,"o":"m 11 607 l 111 607 l 111 0 l 231 0 l 231 364 l 735 364 l 735 0 l 854 0 l 854 607 l 954 607 l 954 706 l 854 706 l 854 875 l 735 875 l 735 706 l 231 706 l 231 875 l 111 875 l 111 706 l 11 706 z m 231 464 l 231 607 l 735 607 l 735 464 z "},"Ĥ":{"ha":914,"x_min":0,"x_max":0,"o":"m 206 0 l 206 401 l 708 401 l 708 0 l 829 0 l 829 875 l 708 875 l 708 500 l 206 500 l 206 875 l 85 875 l 85 0 z m 390 1114 l 279 939 l 363 939 l 457 1042 l 551 939 l 635 939 l 524 1114 z "},"Ĭ":{"ha":290,"x_min":0,"x_max":0,"o":"m 85 875 l 85 0 l 206 0 l 206 875 z m 144 935 b 306 1114 246 935 306 994 l 225 1114 b 144 1017 225 1053 203 1017 b 64 1114 86 1017 64 1053 l -17 1114 b 144 935 -17 994 43 935 z "},"İ":{"ha":290,"x_min":0,"x_max":0,"o":"m 85 875 l 85 0 l 206 0 l 206 875 z m 85 946 l 206 946 l 206 1076 l 85 1076 z "},"Ī":{"ha":290,"x_min":0,"x_max":0,"o":"m 85 875 l 85 0 l 206 0 l 206 875 z m -22 949 l 313 949 l 313 1036 l -22 1036 z "},"Į":{"ha":290,"x_min":0,"x_max":0,"o":"m 85 875 l 85 3 l 101 0 b -4 -150 44 -43 -4 -90 b 103 -243 -4 -211 40 -243 b 206 -212 151 -243 182 -228 l 206 -149 b 133 -171 185 -160 160 -171 b 82 -129 97 -171 82 -154 b 206 0 82 -90 111 -58 l 206 875 z "},"Ĩ":{"ha":290,"x_min":0,"x_max":0,"o":"m 29 936 b 71 1013 31 986 36 1013 b 228 932 121 1013 158 932 b 333 1100 299 932 333 999 l 264 1100 b 222 1022 261 1050 256 1022 b 67 1104 172 1022 135 1104 b -40 936 -6 1104 -40 1038 z m 85 875 l 85 0 l 206 0 l 206 875 z "},"Ĳ":{"ha":996,"x_min":0,"x_max":0,"o":"m 85 875 l 85 0 l 206 0 l 206 875 z m 804 875 l 804 301 b 621 82 804 154 744 82 b 418 308 494 82 428 167 l 304 301 b 618 -17 313 93 433 -17 b 924 299 804 -17 924 89 l 924 875 z "},"Ĵ":{"ha":708,"x_min":0,"x_max":0,"o":"m 517 875 l 517 301 b 333 82 517 154 457 82 b 131 308 207 82 140 167 l 17 301 b 331 -17 25 93 146 -17 b 636 299 517 -17 636 89 l 636 875 z m 511 1114 l 400 939 l 483 939 l 578 1042 l 672 939 l 756 939 l 644 1114 z "},"Ķ":{"ha":811,"x_min":0,"x_max":0,"o":"m 350 -167 l 404 -167 b 350 -219 403 -204 389 -219 l 350 -268 b 475 -146 446 -268 475 -217 l 475 -71 l 350 -71 z m 814 0 l 396 490 l 772 875 l 629 875 l 206 443 l 206 875 l 85 875 l 85 0 l 206 0 l 206 313 l 307 415 l 668 0 z "},"Ĺ":{"ha":728,"x_min":0,"x_max":0,"o":"m 188 939 l 322 1114 l 182 1114 l 107 939 z m 85 875 l 85 0 l 693 0 l 693 100 l 206 100 l 206 875 z "},"Ľ":{"ha":728,"x_min":0,"x_max":0,"o":"m 450 692 l 533 875 l 406 875 l 385 692 z m 85 875 l 85 0 l 693 0 l 693 100 l 206 100 l 206 875 z "},"Ļ":{"ha":728,"x_min":0,"x_max":0,"o":"m 326 -167 l 381 -167 b 326 -219 379 -204 365 -219 l 326 -268 b 451 -146 422 -268 451 -217 l 451 -71 l 326 -71 z m 85 875 l 85 0 l 693 0 l 693 100 l 206 100 l 206 875 z "},"Ŀ":{"ha":728,"x_min":0,"x_max":0,"o":"m 85 875 l 85 0 l 693 0 l 693 100 l 206 100 l 206 875 z m 492 397 l 613 397 l 613 528 l 492 528 z "},"Ń":{"ha":886,"x_min":0,"x_max":0,"o":"m 494 939 l 629 1114 l 489 1114 l 414 939 z m 210 875 l 85 875 l 85 0 l 197 0 l 197 703 l 706 0 l 801 0 l 801 875 l 689 875 l 689 206 z "},"Ň":{"ha":886,"x_min":0,"x_max":0,"o":"m 521 939 l 632 1114 l 549 1114 l 454 1011 l 360 1114 l 276 1114 l 388 939 z m 210 875 l 85 875 l 85 0 l 197 0 l 197 703 l 706 0 l 801 0 l 801 875 l 689 875 l 689 206 z "},"Ņ":{"ha":886,"x_min":0,"x_max":0,"o":"m 392 -167 l 446 -167 b 392 -219 444 -204 431 -219 l 392 -268 b 517 -146 488 -268 517 -217 l 517 -71 l 392 -71 z m 210 875 l 85 875 l 85 0 l 197 0 l 197 703 l 706 0 l 801 0 l 801 875 l 689 875 l 689 206 z "},"Ŋ":{"ha":886,"x_min":0,"x_max":0,"o":"m 378 -140 b 589 -250 415 -204 489 -250 b 801 -14 715 -250 801 -183 l 801 875 l 689 875 l 689 194 l 210 875 l 85 875 l 85 0 l 197 0 l 197 703 l 689 13 b 582 -153 689 -108 664 -153 b 444 -75 515 -153 476 -119 z "},"Ŏ":{"ha":957,"x_min":0,"x_max":0,"o":"m 479 935 b 640 1114 581 935 640 994 l 560 1114 b 479 1017 560 1053 538 1017 b 399 1114 421 1017 399 1053 l 318 1114 b 479 935 318 994 378 935 z m 914 438 b 479 892 914 707 733 892 b 44 438 224 892 44 707 b 479 -17 44 168 224 -17 b 914 438 733 -17 914 168 z m 789 438 b 479 86 789 224 668 86 b 168 438 290 86 168 224 b 479 789 168 651 290 789 b 789 438 668 789 789 651 z "},"Ő":{"ha":957,"x_min":0,"x_max":0,"o":"m 914 438 b 479 892 914 707 733 892 b 44 438 224 892 44 707 b 479 -17 44 168 224 -17 b 914 438 733 -17 914 168 z m 789 438 b 479 86 789 224 668 86 b 168 438 290 86 168 224 b 479 789 168 651 290 789 b 789 438 668 789 789 651 z m 428 939 l 558 1114 l 426 1114 l 356 939 z m 611 939 l 742 1114 l 610 1114 l 539 939 z "},"Ō":{"ha":957,"x_min":0,"x_max":0,"o":"m 300 949 l 660 949 l 660 1036 l 300 1036 z m 914 438 b 479 892 914 707 733 892 b 44 438 224 892 44 707 b 479 -17 44 168 224 -17 b 914 438 733 -17 914 168 z m 789 438 b 479 86 789 224 668 86 b 168 438 290 86 168 224 b 479 789 168 651 290 789 b 789 438 668 789 789 651 z "},"Ǿ":{"ha":957,"x_min":0,"x_max":0,"o":"m 914 438 b 793 764 914 571 869 683 l 871 860 l 807 908 l 732 815 b 479 892 663 864 576 892 b 44 438 224 892 44 707 b 165 110 44 303 89 189 l 81 3 l 144 -46 l 226 57 b 479 -17 296 10 382 -17 b 914 438 733 -17 914 168 z m 168 438 b 479 789 168 651 290 789 b 664 731 551 789 615 768 l 238 200 b 168 438 193 260 168 340 z m 789 438 b 479 86 789 224 668 86 b 294 143 407 86 344 106 l 721 672 b 789 438 764 613 789 533 z m 518 939 l 653 1114 l 513 1114 l 438 939 z "},"Ŕ":{"ha":832,"x_min":0,"x_max":0,"o":"m 782 0 b 738 210 753 32 749 82 b 571 399 729 313 678 378 b 769 617 678 411 769 482 b 440 875 769 772 663 875 l 85 875 l 85 0 l 203 0 l 203 353 l 450 353 b 621 190 569 353 615 288 b 657 0 628 88 640 24 z m 203 449 l 203 776 l 433 776 b 649 613 582 776 649 713 b 433 449 649 504 582 449 z m 456 939 l 590 1114 l 450 1114 l 375 939 z "},"Ř":{"ha":832,"x_min":0,"x_max":0,"o":"m 483 939 l 594 1114 l 511 1114 l 417 1011 l 322 1114 l 239 1114 l 350 939 z m 782 0 b 738 210 753 32 749 82 b 571 399 729 313 678 378 b 769 617 678 411 769 482 b 440 875 769 772 663 875 l 85 875 l 85 0 l 203 0 l 203 353 l 450 353 b 621 190 569 353 615 288 b 657 0 628 88 640 24 z m 203 449 l 203 776 l 433 776 b 649 613 582 776 649 713 b 433 449 649 504 582 449 z "},"Ŗ":{"ha":832,"x_min":0,"x_max":0,"o":"m 354 -167 l 408 -167 b 354 -219 407 -204 393 -219 l 354 -268 b 479 -146 450 -268 479 -217 l 479 -71 l 354 -71 z m 782 0 b 738 210 753 32 749 82 b 571 399 729 313 678 378 b 769 617 678 411 769 482 b 440 875 769 772 663 875 l 85 875 l 85 0 l 203 0 l 203 353 l 450 353 b 621 190 569 353 615 288 b 657 0 628 88 640 24 z m 203 449 l 203 776 l 433 776 b 649 613 582 776 649 713 b 433 449 649 504 582 449 z "},"Ś":{"ha":779,"x_min":0,"x_max":0,"o":"m 31 313 b 403 -17 31 101 188 -17 b 731 238 592 -17 731 76 b 490 478 731 378 650 447 l 332 508 b 174 642 231 528 174 556 b 371 799 174 739 244 799 b 607 572 515 799 603 717 l 717 578 b 369 892 715 775 589 892 b 57 635 178 892 57 788 b 275 404 57 499 146 429 l 449 371 b 615 229 563 349 615 310 b 403 78 615 133 533 78 b 139 319 256 78 146 160 z m 428 939 l 563 1114 l 422 1114 l 347 939 z "},"Ş":{"ha":779,"x_min":0,"x_max":0,"o":"m 543 -142 b 385 -62 543 -65 463 -42 l 419 -17 b 731 238 600 -11 731 81 b 490 478 731 378 650 447 l 332 508 b 174 642 231 528 174 556 b 371 799 174 739 244 799 b 607 572 515 799 603 717 l 717 578 b 369 892 715 775 589 892 b 57 635 178 892 57 788 b 275 404 57 499 146 429 l 449 371 b 615 229 563 349 615 310 b 403 78 615 133 533 78 b 139 319 256 78 146 160 l 31 313 b 367 -15 31 113 169 -3 l 307 -104 l 335 -119 b 453 -149 381 -99 453 -94 b 383 -190 453 -178 425 -190 b 258 -146 333 -190 288 -168 l 235 -190 b 388 -243 264 -215 321 -243 b 543 -142 467 -243 543 -217 z "},"Ŝ":{"ha":779,"x_min":0,"x_max":0,"o":"m 31 313 b 403 -17 31 101 188 -17 b 731 238 592 -17 731 76 b 490 478 731 378 650 447 l 332 508 b 174 642 231 528 174 556 b 371 799 174 739 244 799 b 607 572 515 799 603 717 l 717 578 b 369 892 715 775 589 892 b 57 635 178 892 57 788 b 275 404 57 499 146 429 l 449 371 b 615 229 563 349 615 310 b 403 78 615 133 533 78 b 139 319 256 78 146 160 z m 322 1114 l 211 939 l 294 939 l 389 1042 l 483 939 l 567 939 l 456 1114 z "},"Ș":{"ha":779,"x_min":0,"x_max":0,"o":"m 326 -167 l 381 -167 b 326 -219 379 -204 365 -219 l 326 -268 b 451 -146 422 -268 451 -217 l 451 -71 l 326 -71 z m 31 313 b 403 -17 31 101 188 -17 b 731 238 592 -17 731 76 b 490 478 731 378 650 447 l 332 508 b 174 642 231 528 174 556 b 371 799 174 739 244 799 b 607 572 515 799 603 717 l 717 578 b 369 892 715 775 589 892 b 57 635 178 892 57 788 b 275 404 57 499 146 429 l 449 371 b 615 229 563 349 615 310 b 403 78 615 133 533 78 b 139 319 256 78 146 160 z "},"Ŧ":{"ha":819,"x_min":0,"x_max":0,"o":"m 158 397 l 347 397 l 347 0 l 467 0 l 467 397 l 657 397 l 657 494 l 467 494 l 467 775 l 790 775 l 790 875 l 29 875 l 29 775 l 347 775 l 347 494 l 158 494 z "},"Ť":{"ha":819,"x_min":0,"x_max":0,"o":"m 476 939 l 588 1114 l 504 1114 l 410 1011 l 315 1114 l 232 1114 l 343 939 z m 467 0 l 467 775 l 790 775 l 790 875 l 29 875 l 29 775 l 347 775 l 347 0 z "},"Ŭ":{"ha":856,"x_min":0,"x_max":0,"o":"m 428 935 b 589 1114 529 935 589 994 l 508 1114 b 428 1017 508 1053 486 1017 b 347 1114 369 1017 347 1053 l 267 1114 b 428 935 267 994 326 935 z m 428 -17 b 783 335 625 -17 783 79 l 783 875 l 665 875 l 665 332 b 428 85 665 167 581 85 b 193 333 275 85 193 167 l 193 875 l 74 875 l 74 335 b 428 -17 74 79 231 -17 z "},"Ű":{"ha":856,"x_min":0,"x_max":0,"o":"m 428 -17 b 783 335 625 -17 783 79 l 783 875 l 665 875 l 665 332 b 428 85 665 167 581 85 b 193 333 275 85 193 167 l 193 875 l 74 875 l 74 335 b 428 -17 74 79 231 -17 z m 378 939 l 508 1114 l 376 1114 l 306 939 z m 561 939 l 692 1114 l 560 1114 l 489 939 z "},"Ū":{"ha":856,"x_min":0,"x_max":0,"o":"m 249 949 l 608 949 l 608 1036 l 249 1036 z m 428 -17 b 783 335 625 -17 783 79 l 783 875 l 665 875 l 665 332 b 428 85 665 167 581 85 b 193 333 275 85 193 167 l 193 875 l 74 875 l 74 335 b 428 -17 74 79 231 -17 z "},"Ų":{"ha":856,"x_min":0,"x_max":0,"o":"m 428 -17 b 492 -12 450 -17 471 -15 b 404 -150 443 -53 404 -96 b 510 -243 404 -211 449 -243 b 614 -212 560 -243 590 -228 l 614 -149 b 540 -171 592 -160 567 -171 b 490 -129 506 -171 490 -154 b 600 14 490 -87 522 -53 b 783 335 710 60 783 160 l 783 875 l 665 875 l 665 332 b 428 85 665 167 581 85 b 193 333 275 85 193 167 l 193 875 l 74 875 l 74 335 b 428 -17 74 79 231 -17 z "},"Ů":{"ha":856,"x_min":0,"x_max":0,"o":"m 428 -17 b 783 335 625 -17 783 79 l 783 875 l 665 875 l 665 332 b 428 85 665 167 581 85 b 193 333 275 85 193 167 l 193 875 l 74 875 l 74 335 b 428 -17 74 79 231 -17 z m 368 1033 b 428 1093 368 1068 389 1093 b 488 1033 467 1093 488 1068 b 428 972 488 997 467 972 b 368 1033 389 972 368 997 z m 306 1033 b 428 915 306 967 354 915 b 550 1033 501 915 550 967 b 428 1150 550 1099 501 1150 b 306 1033 354 1150 306 1099 z "},"Ũ":{"ha":856,"x_min":0,"x_max":0,"o":"m 294 938 b 346 1014 297 986 308 1014 b 517 933 400 1014 442 933 b 632 1100 594 933 632 1000 l 563 1100 b 511 1024 560 1051 550 1024 b 340 1104 457 1024 415 1104 b 225 938 264 1104 225 1039 z m 428 -17 b 783 335 625 -17 783 79 l 783 875 l 665 875 l 665 332 b 428 85 665 167 581 85 b 193 333 275 85 193 167 l 193 875 l 74 875 l 74 335 b 428 -17 74 79 231 -17 z "},"Ẃ":{"ha":1133,"x_min":0,"x_max":0,"o":"m 607 939 l 742 1114 l 601 1114 l 526 939 z m 625 875 l 513 875 l 322 150 l 317 150 l 133 875 l 17 875 l 240 0 l 379 0 l 565 699 l 571 699 l 753 0 l 893 0 l 1117 875 l 1004 875 l 825 147 l 819 147 z "},"Ŵ":{"ha":1133,"x_min":0,"x_max":0,"o":"m 625 875 l 513 875 l 322 150 l 317 150 l 133 875 l 17 875 l 240 0 l 379 0 l 565 699 l 571 699 l 753 0 l 893 0 l 1117 875 l 1004 875 l 825 147 l 819 147 z m 500 1114 l 389 939 l 472 939 l 567 1042 l 661 939 l 744 939 l 633 1114 z "},"Ẁ":{"ha":1133,"x_min":0,"x_max":0,"o":"m 619 939 l 544 1114 l 404 1114 l 539 939 z m 625 875 l 513 875 l 322 150 l 317 150 l 133 875 l 17 875 l 240 0 l 379 0 l 565 699 l 571 699 l 753 0 l 893 0 l 1117 875 l 1004 875 l 825 147 l 819 147 z "},"Ẅ":{"ha":1133,"x_min":0,"x_max":0,"o":"m 415 946 l 529 946 l 529 1076 l 415 1076 z m 607 946 l 719 946 l 719 1076 l 607 1076 z m 625 875 l 513 875 l 322 150 l 317 150 l 133 875 l 17 875 l 240 0 l 379 0 l 565 699 l 571 699 l 753 0 l 893 0 l 1117 875 l 1004 875 l 825 147 l 819 147 z "},"Ŷ":{"ha":831,"x_min":0,"x_max":0,"o":"m 422 456 l 149 875 l 17 875 l 358 343 l 358 0 l 474 0 l 474 343 l 814 875 l 686 875 z m 349 1114 l 238 939 l 321 939 l 415 1042 l 510 939 l 593 939 l 482 1114 z "},"Ỳ":{"ha":831,"x_min":0,"x_max":0,"o":"m 422 456 l 149 875 l 17 875 l 358 343 l 358 0 l 474 0 l 474 343 l 814 875 l 686 875 z m 468 939 l 393 1114 l 253 1114 l 388 939 z "},"Ź":{"ha":778,"x_min":0,"x_max":0,"o":"m 194 100 l 722 786 l 722 875 l 49 875 l 49 775 l 569 775 l 42 85 l 42 0 l 736 0 l 736 100 z m 442 939 l 576 1114 l 436 1114 l 361 939 z "},"Ż":{"ha":778,"x_min":0,"x_max":0,"o":"m 342 946 l 463 946 l 463 1076 l 342 1076 z m 194 100 l 722 786 l 722 875 l 49 875 l 49 775 l 569 775 l 42 85 l 42 0 l 736 0 l 736 100 z "},"ă":{"ha":679,"x_min":0,"x_max":0,"o":"m 457 271 b 268 68 457 149 375 68 b 164 158 199 68 164 107 b 321 271 164 232 225 250 l 457 300 z m 568 392 b 325 624 568 546 478 624 b 68 426 182 624 92 540 l 171 413 b 324 535 189 483 236 535 b 457 400 408 535 457 483 l 457 376 l 293 343 b 49 151 147 314 49 267 b 243 -17 49 47 125 -17 b 461 107 342 -17 428 36 b 575 -12 468 35 513 -12 b 668 24 622 -12 647 3 l 668 86 b 615 72 651 76 629 72 b 568 119 586 72 568 88 z m 332 696 b 493 875 433 696 493 756 l 413 875 b 332 778 413 814 390 778 b 251 875 274 778 251 814 l 171 875 b 332 696 171 756 231 696 z "},"ā":{"ha":679,"x_min":0,"x_max":0,"o":"m 457 271 b 268 68 457 149 375 68 b 164 158 199 68 164 107 b 321 271 164 232 225 250 l 457 300 z m 568 392 b 325 624 568 546 478 624 b 68 426 182 624 92 540 l 171 413 b 324 535 189 483 236 535 b 457 400 408 535 457 483 l 457 376 l 293 343 b 49 151 147 314 49 267 b 243 -17 49 47 125 -17 b 461 107 342 -17 428 36 b 575 -12 468 35 513 -12 b 668 24 622 -12 647 3 l 668 86 b 615 72 651 76 629 72 b 568 119 586 72 568 88 z m 154 715 l 511 715 l 511 804 l 154 804 z "},"ą":{"ha":679,"x_min":0,"x_max":0,"o":"m 568 392 b 325 624 568 546 478 624 b 68 426 182 624 92 540 l 171 413 b 324 535 189 483 236 535 b 457 400 408 535 457 483 l 457 376 l 293 343 b 49 151 146 314 49 265 b 242 -17 49 46 125 -17 b 461 107 342 -17 428 36 b 550 -10 467 44 500 0 b 458 -150 496 -49 458 -96 b 564 -243 458 -211 503 -243 b 668 -212 614 -243 644 -228 l 668 -149 b 594 -171 646 -160 621 -171 b 544 -129 560 -171 544 -154 b 668 21 544 -68 615 -22 l 668 86 b 615 72 651 76 629 72 b 568 119 586 72 568 88 z m 457 271 b 268 68 457 149 375 68 b 164 158 200 68 164 106 b 321 271 164 229 222 250 l 457 300 z "},"ǻ":{"ha":679,"x_min":0,"x_max":0,"o":"m 375 913 l 492 1049 l 351 1049 l 294 913 z m 272 765 b 332 821 272 799 293 821 b 394 765 374 821 394 799 b 332 710 394 732 374 710 b 272 765 293 710 272 732 z m 211 765 b 332 656 211 703 260 656 b 456 765 407 656 456 703 b 332 876 456 828 407 876 b 211 765 260 876 211 828 z m 457 271 b 268 68 457 149 375 68 b 164 158 199 68 164 107 b 321 271 164 232 225 250 l 457 300 z m 568 392 b 325 624 568 546 478 624 b 68 426 182 624 92 540 l 171 413 b 324 535 189 483 236 535 b 457 400 408 535 457 483 l 457 376 l 293 343 b 49 151 147 314 49 267 b 243 -17 49 47 125 -17 b 461 107 342 -17 428 36 b 575 -12 468 35 513 -12 b 668 24 622 -12 647 3 l 668 86 b 615 72 651 76 629 72 b 568 119 586 72 568 88 z "},"ǽ":{"ha":1078,"x_min":0,"x_max":0,"o":"m 583 700 l 718 875 l 578 875 l 503 700 z m 321 624 b 69 428 186 624 92 542 l 168 414 b 324 535 186 483 236 535 b 461 390 408 535 461 483 l 461 350 l 361 350 b 49 154 138 350 49 274 b 258 -17 49 50 125 -17 b 499 124 381 -17 463 51 b 751 -17 549 36 633 -17 b 1035 206 901 -17 1006 67 l 939 217 b 753 74 915 122 853 74 b 553 275 650 74 561 146 l 1036 275 l 1036 321 b 746 624 1036 486 939 624 b 524 515 654 624 574 581 b 321 624 490 586 422 624 z m 271 67 b 164 161 199 67 164 108 b 365 275 164 235 210 275 l 461 275 l 461 256 b 271 67 461 132 369 67 z m 746 536 b 919 350 860 536 914 447 l 556 350 b 746 536 572 461 647 536 z "},"ć":{"ha":676,"x_min":0,"x_max":0,"o":"m 393 700 l 528 875 l 388 875 l 313 700 z m 40 303 b 351 -17 40 110 168 -17 b 638 249 529 -17 625 101 l 536 258 b 350 75 526 151 463 75 b 158 303 236 75 158 163 b 350 531 158 443 236 531 b 536 351 463 531 526 458 l 638 358 b 351 624 625 504 529 624 b 40 303 168 624 40 496 z "},"č":{"ha":676,"x_min":0,"x_max":0,"o":"m 418 700 l 529 875 l 446 875 l 351 771 l 257 875 l 174 875 l 285 700 z m 40 303 b 351 -17 40 110 168 -17 b 638 249 529 -17 625 101 l 536 258 b 350 75 526 151 463 75 b 158 303 236 75 158 163 b 350 531 158 443 236 531 b 536 351 463 531 526 458 l 638 358 b 351 624 625 504 529 624 b 40 303 168 624 40 496 z "},"ĉ":{"ha":676,"x_min":0,"x_max":0,"o":"m 285 875 l 174 700 l 257 700 l 351 803 l 446 700 l 529 700 l 418 875 z m 40 303 b 351 -17 40 110 168 -17 b 638 249 529 -17 625 101 l 536 258 b 350 75 526 151 463 75 b 158 303 236 75 158 163 b 350 531 158 443 236 531 b 536 351 463 531 526 458 l 638 358 b 351 624 625 504 529 624 b 40 303 168 624 40 496 z "},"ċ":{"ha":676,"x_min":0,"x_max":0,"o":"m 40 303 b 351 -17 40 110 168 -17 b 638 249 529 -17 625 101 l 536 258 b 350 75 526 151 463 75 b 158 303 236 75 158 163 b 350 531 158 443 236 531 b 536 351 463 531 526 458 l 638 358 b 351 624 625 504 529 624 b 40 303 168 624 40 496 z m 290 744 l 411 744 l 411 875 l 290 875 z "},"ď":{"ha":729,"x_min":0,"x_max":0,"o":"m 774 692 l 857 875 l 729 875 l 708 692 z m 538 286 b 344 75 538 153 454 75 b 158 303 225 75 158 164 b 344 531 158 442 225 531 b 538 321 454 531 538 453 z m 536 0 l 651 0 l 651 875 l 536 875 l 536 479 b 318 624 508 554 432 624 b 40 303 138 624 40 482 b 318 -17 40 124 138 -17 b 536 126 432 -17 508 51 z "},"đ":{"ha":729,"x_min":0,"x_max":0,"o":"m 536 0 l 651 0 l 651 685 l 733 685 l 733 763 l 651 763 l 651 875 l 536 875 l 536 763 l 336 763 l 336 685 l 536 685 l 536 474 b 318 618 508 550 432 618 b 40 300 138 618 40 478 b 318 -17 40 124 138 -17 b 536 125 432 -17 508 50 z m 538 285 b 344 76 538 153 454 76 b 158 301 225 76 158 164 b 344 528 158 440 225 528 b 538 319 454 528 538 450 z "},"ĕ":{"ha":679,"x_min":0,"x_max":0,"o":"m 540 215 b 354 74 515 122 456 74 b 156 275 246 74 161 157 l 639 275 l 639 321 b 347 624 639 486 540 624 b 40 294 172 624 40 486 b 353 -17 40 106 172 -17 b 636 204 504 -17 606 67 z m 158 350 b 347 536 172 450 238 536 b 521 350 463 536 517 447 z m 347 696 b 508 875 449 696 508 756 l 428 875 b 347 778 428 814 406 778 b 267 875 289 778 267 814 l 186 875 b 347 696 186 756 246 696 z "},"ě":{"ha":679,"x_min":0,"x_max":0,"o":"m 415 700 l 526 875 l 443 875 l 349 771 l 254 875 l 171 875 l 282 700 z m 540 215 b 354 74 515 122 456 74 b 156 275 246 74 161 157 l 639 275 l 639 321 b 347 624 639 486 540 624 b 40 294 172 624 40 486 b 353 -17 40 106 172 -17 b 636 204 504 -17 606 67 z m 158 350 b 347 536 172 450 238 536 b 521 350 463 536 517 447 z "},"ė":{"ha":679,"x_min":0,"x_max":0,"o":"m 540 215 b 354 74 515 122 456 74 b 156 275 246 74 161 157 l 639 275 l 639 321 b 347 624 639 486 540 624 b 40 294 172 624 40 486 b 353 -17 40 106 172 -17 b 636 204 504 -17 606 67 z m 158 350 b 347 536 172 450 238 536 b 521 350 463 536 517 447 z m 289 744 l 410 744 l 410 875 l 289 875 z "},"ē":{"ha":679,"x_min":0,"x_max":0,"o":"m 540 215 b 354 74 515 122 456 74 b 156 275 246 74 161 157 l 639 275 l 639 321 b 347 624 639 486 540 624 b 40 294 172 624 40 486 b 353 -17 40 106 172 -17 b 636 204 504 -17 606 67 z m 158 350 b 347 536 172 450 238 536 b 521 350 463 536 517 447 z m 171 715 l 528 715 l 528 804 l 171 804 z "},"ę":{"ha":679,"x_min":0,"x_max":0,"o":"m 540 215 b 354 74 515 121 456 74 b 156 275 246 74 161 157 l 639 275 l 639 321 b 347 624 639 486 540 624 b 40 294 172 624 40 486 b 353 -17 40 106 172 -17 b 392 -14 365 -17 379 -15 b 303 -150 342 -53 303 -97 b 410 -243 303 -211 347 -243 b 514 -212 460 -243 490 -228 l 514 -149 b 440 -171 492 -160 467 -171 b 389 -129 404 -171 389 -154 b 504 19 389 -87 417 -40 b 636 204 567 63 617 118 z m 158 350 b 347 536 172 450 238 536 b 521 350 463 536 517 447 z "},"ğ":{"ha":667,"x_min":0,"x_max":0,"o":"m 579 417 b 550 519 579 456 568 490 b 667 544 581 535 626 544 l 667 644 b 513 561 601 644 544 610 b 322 624 467 600 399 624 b 68 417 174 624 68 544 b 147 260 68 350 97 296 b 56 146 93 236 56 199 b 136 42 56 100 81 60 b 11 -86 61 28 11 -17 b 311 -250 11 -199 147 -250 b 661 -40 492 -250 661 -192 b 460 124 661 54 592 124 l 222 124 b 149 176 169 124 149 143 b 189 236 149 204 168 224 b 322 211 226 219 272 211 b 579 417 472 211 579 290 z m 121 -64 b 238 22 121 1 175 22 l 433 22 b 550 -53 504 22 550 3 b 311 -174 550 -140 450 -174 b 121 -64 199 -174 121 -140 z m 463 415 b 324 285 463 332 410 285 b 186 415 239 285 186 332 b 324 549 186 501 239 549 b 463 415 410 549 463 501 z m 339 696 b 500 875 440 696 500 756 l 419 875 b 339 778 419 814 397 778 b 258 875 281 778 258 814 l 178 875 b 339 696 178 756 238 696 z "},"ĝ":{"ha":667,"x_min":0,"x_max":0,"o":"m 579 417 b 550 519 579 456 568 490 b 667 544 581 535 626 544 l 667 644 b 513 561 601 644 544 610 b 322 624 467 600 399 624 b 68 417 174 624 68 544 b 147 260 68 350 97 296 b 56 146 93 236 56 199 b 136 42 56 100 81 60 b 11 -86 61 28 11 -17 b 311 -250 11 -199 147 -250 b 661 -40 492 -250 661 -192 b 460 124 661 54 592 124 l 222 124 b 149 176 169 124 149 143 b 189 236 149 204 168 224 b 322 211 226 219 272 211 b 579 417 472 211 579 290 z m 121 -64 b 238 22 121 1 175 22 l 433 22 b 550 -53 504 22 550 3 b 311 -174 550 -140 450 -174 b 121 -64 199 -174 121 -140 z m 463 415 b 324 285 463 332 410 285 b 186 415 239 285 186 332 b 324 549 186 501 239 549 b 463 415 410 549 463 501 z m 272 875 l 161 700 l 244 700 l 339 803 l 433 700 l 517 700 l 406 875 z "},"ģ":{"ha":667,"x_min":0,"x_max":0,"o":"m 579 417 b 550 519 579 456 568 490 b 667 544 581 535 626 544 l 667 644 b 513 561 601 644 544 610 b 322 624 467 600 399 624 b 68 417 174 624 68 544 b 147 260 68 350 97 296 b 56 146 93 236 56 199 b 136 42 56 100 81 60 b 11 -86 61 28 11 -17 b 311 -250 11 -199 147 -250 b 661 -40 492 -250 661 -192 b 460 124 661 54 592 124 l 222 124 b 149 176 169 124 149 143 b 189 236 149 204 168 224 b 322 211 226 219 272 211 b 579 417 472 211 579 290 z m 121 -64 b 238 22 121 1 175 22 l 433 22 b 550 -53 504 22 550 3 b 311 -174 550 -140 450 -174 b 121 -64 199 -174 121 -140 z m 463 415 b 324 285 463 332 410 285 b 186 415 239 285 186 332 b 324 549 186 501 239 549 b 463 415 410 549 463 501 z m 401 818 l 347 818 b 401 871 349 856 363 871 l 401 919 b 276 797 306 919 276 868 l 276 722 l 401 722 z "},"ġ":{"ha":667,"x_min":0,"x_max":0,"o":"m 579 417 b 550 519 579 456 568 490 b 667 544 581 535 626 544 l 667 644 b 513 561 601 644 544 610 b 322 624 467 600 399 624 b 68 417 174 624 68 544 b 147 260 68 350 97 296 b 56 146 93 236 56 199 b 136 42 56 100 81 60 b 11 -86 61 28 11 -17 b 311 -250 11 -199 147 -250 b 661 -40 492 -250 661 -192 b 460 124 661 54 592 124 l 222 124 b 149 176 169 124 149 143 b 189 236 149 204 168 224 b 322 211 226 219 272 211 b 579 417 472 211 579 290 z m 121 -64 b 238 22 121 1 175 22 l 433 22 b 550 -53 504 22 550 3 b 311 -174 550 -140 450 -174 b 121 -64 199 -174 121 -140 z m 463 415 b 324 285 463 332 410 285 b 186 415 239 285 186 332 b 324 549 186 501 239 549 b 463 415 410 549 463 501 z m 279 744 l 400 744 l 400 875 l 279 875 z "},"ħ":{"ha":689,"x_min":0,"x_max":0,"o":"m -3 685 l 79 685 l 79 0 l 194 0 l 194 343 b 358 526 194 456 267 526 b 503 361 454 526 503 463 l 503 0 l 618 0 l 618 372 b 396 618 618 513 554 618 b 194 494 306 618 224 567 l 194 685 l 393 685 l 393 763 l 194 763 l 194 875 l 79 875 l 79 763 l -3 763 z "},"ĥ":{"ha":689,"x_min":0,"x_max":0,"o":"m 194 349 b 358 532 194 460 267 532 b 503 367 454 532 503 468 l 503 0 l 618 0 l 618 376 b 396 624 618 518 554 624 b 194 499 306 624 224 572 l 194 875 l 79 875 l 79 0 l 194 0 z m 281 1114 l 169 939 l 253 939 l 347 1042 l 442 939 l 525 939 l 414 1114 z "},"ĭ":{"ha":272,"x_min":0,"x_max":0,"o":"m 79 607 l 79 0 l 194 0 l 194 607 z m 136 696 b 297 875 238 696 297 756 l 217 875 b 136 778 217 814 194 778 b 56 875 78 778 56 814 l -25 875 b 136 696 -25 756 35 696 z "},"ī":{"ha":272,"x_min":0,"x_max":0,"o":"m 79 607 l 79 0 l 194 0 l 194 607 z m -14 715 l 286 715 l 286 804 l -14 804 z "},"į":{"ha":272,"x_min":0,"x_max":0,"o":"m 79 607 l 79 3 l 92 0 b -12 -150 35 -43 -12 -90 b 93 -243 -12 -211 32 -243 b 197 -212 143 -243 174 -228 l 197 -149 b 124 -171 175 -160 150 -171 b 74 -129 89 -171 74 -154 b 194 0 74 -90 103 -58 l 194 607 z m 76 744 l 196 744 l 196 875 l 76 875 z "},"ĩ":{"ha":272,"x_min":0,"x_max":0,"o":"m 24 711 b 65 789 26 761 31 789 b 213 707 114 789 146 707 b 315 875 282 707 315 775 l 249 875 b 207 799 246 826 242 799 b 60 879 160 799 126 879 b -43 711 -10 879 -43 814 z m 79 607 l 79 0 l 194 0 l 194 607 z "},"ĳ":{"ha":544,"x_min":0,"x_max":0,"o":"m 79 607 l 79 0 l 194 0 l 194 607 z m 76 744 l 196 744 l 196 875 l 76 875 z m 467 607 l 351 607 l 351 -92 b 292 -162 351 -140 331 -162 b 197 -132 256 -162 229 -153 l 169 -206 b 304 -250 201 -231 253 -250 b 467 -83 413 -250 467 -190 z m 349 744 l 468 744 l 468 875 l 349 875 z "},"ĵ":{"ha":272,"x_min":0,"x_max":0,"o":"m 194 607 l 79 607 l 79 -92 b 19 -162 79 -140 58 -162 b -75 -132 -17 -162 -43 -153 l -103 -206 b 32 -250 -71 -231 -19 -250 b 194 -83 140 -250 194 -190 z m 68 875 l -43 700 l 40 700 l 135 803 l 229 700 l 313 700 l 201 875 z "},"ķ":{"ha":665,"x_min":0,"x_max":0,"o":"m 281 -167 l 335 -167 b 281 -219 333 -204 319 -219 l 281 -268 b 406 -146 376 -268 406 -217 l 406 -71 l 281 -71 z m 194 219 l 279 294 l 521 0 l 657 0 l 365 358 l 644 607 l 500 607 l 194 332 l 194 875 l 79 875 l 79 0 l 194 0 z "},"ĸ":{"ha":665,"x_min":0,"x_max":0,"o":"m 194 219 l 279 294 l 521 0 l 657 0 l 365 358 l 644 607 l 500 607 l 194 332 l 194 607 l 79 607 l 79 0 l 194 0 z "},"ĺ":{"ha":272,"x_min":0,"x_max":0,"o":"m 175 939 l 310 1114 l 169 1114 l 94 939 z m 79 875 l 79 0 l 194 0 l 194 875 z "},"ľ":{"ha":272,"x_min":0,"x_max":0,"o":"m 313 692 l 396 875 l 268 875 l 247 692 z m 79 875 l 79 0 l 194 0 l 194 875 z "},"ļ":{"ha":272,"x_min":0,"x_max":0,"o":"m 74 -167 l 128 -167 b 74 -219 126 -204 113 -219 l 74 -268 b 199 -146 169 -268 199 -217 l 199 -71 l 74 -71 z m 79 875 l 79 0 l 194 0 l 194 875 z "},"ŀ":{"ha":428,"x_min":0,"x_max":0,"o":"m 79 875 l 79 0 l 194 0 l 194 875 z m 285 374 l 406 374 l 406 504 l 285 504 z "},"ń":{"ha":689,"x_min":0,"x_max":0,"o":"m 392 700 l 526 875 l 386 875 l 311 700 z m 194 349 b 358 532 194 460 267 532 b 503 367 454 532 503 468 l 503 0 l 618 0 l 618 376 b 396 624 618 518 554 624 b 194 499 306 624 224 572 l 194 607 l 79 607 l 79 0 l 194 0 z "},"ň":{"ha":689,"x_min":0,"x_max":0,"o":"m 419 700 l 531 875 l 447 875 l 353 771 l 258 875 l 175 875 l 286 700 z m 194 349 b 358 532 194 460 267 532 b 503 367 454 532 503 468 l 503 0 l 618 0 l 618 376 b 396 624 618 518 554 624 b 194 499 306 624 224 572 l 194 607 l 79 607 l 79 0 l 194 0 z "},"ņ":{"ha":689,"x_min":0,"x_max":0,"o":"m 299 -167 l 353 -167 b 299 -219 351 -204 338 -219 l 299 -268 b 424 -146 394 -268 424 -217 l 424 -71 l 299 -71 z m 194 349 b 358 532 194 460 267 532 b 503 367 454 532 503 468 l 503 0 l 618 0 l 618 376 b 396 624 618 518 554 624 b 194 499 306 624 224 572 l 194 607 l 79 607 l 79 0 l 194 0 z "},"ŋ":{"ha":689,"x_min":0,"x_max":0,"o":"m 503 -92 b 443 -162 503 -140 482 -162 b 349 -132 407 -162 381 -153 l 321 -206 b 456 -250 353 -231 404 -250 b 618 -83 564 -250 618 -190 l 618 376 b 396 624 618 518 554 624 b 194 499 306 624 224 572 l 194 607 l 79 607 l 79 0 l 194 0 l 194 349 b 358 532 194 460 267 532 b 503 367 454 532 503 468 z "},"ŏ":{"ha":700,"x_min":0,"x_max":0,"o":"m 158 303 b 349 533 158 439 226 533 b 542 303 472 533 542 439 b 349 72 542 168 472 72 b 158 303 226 72 158 168 z m 660 303 b 349 624 660 492 528 624 b 40 303 171 624 40 492 b 349 -17 40 114 171 -17 b 660 303 528 -17 660 114 z m 349 696 b 510 875 450 696 510 756 l 429 875 b 349 778 429 814 407 778 b 268 875 290 778 268 814 l 188 875 b 349 696 188 756 247 696 z "},"ő":{"ha":700,"x_min":0,"x_max":0,"o":"m 292 700 l 422 875 l 290 875 l 219 700 z m 475 700 l 606 875 l 474 875 l 403 700 z m 158 303 b 349 533 158 439 226 533 b 542 303 472 533 542 439 b 349 72 542 168 472 72 b 158 303 226 72 158 168 z m 660 303 b 349 624 660 492 528 624 b 40 303 171 624 40 492 b 349 -17 40 114 171 -17 b 660 303 528 -17 660 114 z "},"ō":{"ha":700,"x_min":0,"x_max":0,"o":"m 171 715 l 528 715 l 528 804 l 171 804 z m 158 303 b 349 533 158 439 226 533 b 542 303 472 533 542 439 b 349 72 542 168 472 72 b 158 303 226 72 158 168 z m 660 303 b 349 624 660 492 528 624 b 40 303 171 624 40 492 b 349 -17 40 114 171 -17 b 660 303 528 -17 660 114 z "},"ǿ":{"ha":700,"x_min":0,"x_max":0,"o":"m 660 303 b 582 522 660 390 631 467 l 654 608 l 600 651 l 529 568 b 349 624 479 603 418 624 b 40 303 171 624 40 492 b 118 82 40 214 68 138 l 47 -1 l 101 -46 l 171 36 b 349 -17 219 1 281 -17 b 660 303 528 -17 660 114 z m 156 303 b 349 533 156 439 225 533 b 467 494 396 533 436 519 l 188 164 b 156 303 167 201 156 249 z m 544 303 b 349 72 544 168 474 72 b 233 110 301 72 264 86 l 513 440 b 544 303 533 403 544 356 z m 392 700 l 526 875 l 386 875 l 311 700 z "},"ŕ":{"ha":460,"x_min":0,"x_max":0,"o":"m 303 700 l 438 875 l 297 875 l 222 700 z m 453 596 b 367 624 432 614 404 624 b 194 483 279 624 217 553 l 194 607 l 79 607 l 79 0 l 194 0 l 194 321 b 347 517 194 438 260 517 b 442 492 385 517 408 510 z "},"ř":{"ha":460,"x_min":0,"x_max":0,"o":"m 328 700 l 439 875 l 356 875 l 261 771 l 167 875 l 83 875 l 194 700 z m 453 596 b 367 624 432 614 404 624 b 194 483 279 624 217 553 l 194 607 l 79 607 l 79 0 l 194 0 l 194 321 b 347 517 194 438 260 517 b 442 492 385 517 408 510 z "},"ŗ":{"ha":460,"x_min":0,"x_max":0,"o":"m 74 -167 l 128 -167 b 74 -219 126 -204 113 -219 l 74 -268 b 199 -146 169 -268 199 -217 l 199 -71 l 74 -71 z m 453 596 b 367 624 432 614 404 624 b 194 483 279 624 217 553 l 194 607 l 79 607 l 79 0 l 194 0 l 194 321 b 347 517 194 438 260 517 b 442 492 385 517 408 510 z "},"ś":{"ha":601,"x_min":0,"x_max":0,"o":"m 338 700 l 472 875 l 332 875 l 257 700 z m 35 204 b 313 -17 46 54 161 -17 b 561 169 454 -17 561 49 b 367 346 561 279 489 325 l 253 364 b 160 449 190 375 160 400 b 286 539 160 504 210 539 b 460 403 389 539 446 496 l 553 408 b 286 624 542 549 447 624 b 53 438 146 624 53 549 b 235 267 53 333 121 285 l 338 249 b 453 158 413 235 453 215 b 313 68 453 97 393 68 b 132 211 208 68 143 118 z "},"ş":{"ha":601,"x_min":0,"x_max":0,"o":"m 461 -142 b 303 -62 461 -65 381 -42 l 338 -15 b 561 169 467 -8 561 56 b 367 346 561 279 489 325 l 253 364 b 160 449 190 375 160 400 b 286 539 160 504 210 539 b 460 403 389 539 446 496 l 553 408 b 286 624 542 549 447 624 b 53 438 146 624 53 549 b 235 267 53 333 121 285 l 338 249 b 453 158 413 235 453 215 b 313 68 453 97 393 68 b 132 211 208 68 143 118 l 35 204 b 285 -15 44 63 147 -7 l 225 -104 l 253 -119 b 371 -149 299 -99 371 -94 b 301 -190 371 -178 343 -190 b 176 -146 251 -190 206 -168 l 153 -190 b 306 -243 182 -215 239 -243 b 461 -142 385 -243 461 -217 z "},"ŝ":{"ha":601,"x_min":0,"x_max":0,"o":"m 239 875 l 128 700 l 211 700 l 306 803 l 400 700 l 483 700 l 372 875 z m 35 204 b 313 -17 46 54 161 -17 b 561 169 454 -17 561 49 b 367 346 561 279 489 325 l 253 364 b 160 449 190 375 160 400 b 286 539 160 504 210 539 b 460 403 389 539 446 496 l 553 408 b 286 624 542 549 447 624 b 53 438 146 624 53 549 b 235 267 53 333 121 285 l 338 249 b 453 158 413 235 453 215 b 313 68 453 97 393 68 b 132 211 208 68 143 118 z "},"ș":{"ha":601,"x_min":0,"x_max":0,"o":"m 250 -167 l 304 -167 b 250 -219 303 -204 289 -219 l 250 -268 b 375 -146 346 -268 375 -217 l 375 -71 l 250 -71 z m 35 204 b 313 -17 46 54 161 -17 b 561 169 454 -17 561 49 b 367 346 561 279 489 325 l 253 364 b 160 449 190 375 160 400 b 286 539 160 504 210 539 b 460 403 389 539 446 496 l 553 408 b 286 624 542 549 447 624 b 53 438 146 624 53 549 b 235 267 53 333 121 285 l 338 249 b 453 158 413 235 453 215 b 313 68 453 97 393 68 b 132 211 208 68 143 118 z "},"ŧ":{"ha":443,"x_min":0,"x_max":0,"o":"m 21 294 l 113 294 l 113 142 b 260 -17 113 24 174 -17 b 415 35 326 -17 371 1 l 415 113 b 301 76 381 93 340 76 b 226 156 249 76 226 101 l 226 294 l 386 294 l 386 372 l 226 372 l 226 524 l 397 524 l 397 607 l 226 607 l 226 775 l 161 775 l 143 690 b 60 593 129 632 117 604 l 21 586 l 21 524 l 113 524 l 113 372 l 21 372 z "},"ť":{"ha":425,"x_min":0,"x_max":0,"o":"m 368 692 l 451 875 l 324 875 l 303 692 z m 100 142 b 247 -17 100 24 161 -17 b 403 35 314 -17 358 1 l 403 113 b 289 76 368 93 328 76 b 214 156 236 76 214 101 l 214 524 l 385 524 l 385 607 l 214 607 l 214 775 l 149 775 l 131 690 b 47 593 117 632 104 604 l 8 586 l 8 524 l 100 524 z "},"ŭ":{"ha":682,"x_min":0,"x_max":0,"o":"m 488 258 b 328 74 488 146 418 74 b 188 240 232 74 188 139 l 188 607 l 72 607 l 72 229 b 289 -17 72 88 131 -17 b 488 107 381 -17 458 35 l 488 0 l 603 0 l 603 607 l 488 607 z m 342 696 b 503 875 443 696 503 756 l 422 875 b 342 778 422 814 400 778 b 261 875 283 778 261 814 l 181 875 b 342 696 181 756 240 696 z "},"ű":{"ha":682,"x_min":0,"x_max":0,"o":"m 488 258 b 328 74 488 146 418 74 b 188 240 232 74 188 139 l 188 607 l 72 607 l 72 229 b 289 -17 72 88 131 -17 b 488 107 381 -17 458 35 l 488 0 l 603 0 l 603 607 l 488 607 z m 283 700 l 414 875 l 282 875 l 211 700 z m 467 700 l 597 875 l 465 875 l 394 700 z "},"ū":{"ha":682,"x_min":0,"x_max":0,"o":"m 488 258 b 328 74 488 146 418 74 b 188 240 232 74 188 139 l 188 607 l 72 607 l 72 229 b 289 -17 72 88 131 -17 b 488 107 381 -17 458 35 l 488 0 l 603 0 l 603 607 l 488 607 z m 164 715 l 521 715 l 521 804 l 164 804 z "},"ų":{"ha":682,"x_min":0,"x_max":0,"o":"m 488 258 b 328 74 488 146 418 74 b 188 240 232 74 188 139 l 188 607 l 72 607 l 72 229 b 289 -17 72 88 131 -17 b 488 107 381 -17 458 35 l 488 3 l 501 0 b 397 -150 444 -43 397 -90 b 503 -243 397 -211 442 -243 b 607 -212 553 -243 583 -228 l 607 -149 b 533 -171 585 -160 560 -171 b 483 -129 499 -171 483 -154 b 603 0 483 -90 511 -58 l 603 607 l 488 607 z "},"ů":{"ha":682,"x_min":0,"x_max":0,"o":"m 282 794 b 342 854 282 829 303 854 b 401 794 381 854 401 829 b 342 733 401 758 381 733 b 282 794 303 733 282 758 z m 219 794 b 342 676 219 728 268 676 b 464 794 415 676 464 728 b 342 911 464 860 415 911 b 219 794 268 911 219 860 z m 488 258 b 328 74 488 146 418 74 b 188 240 232 74 188 139 l 188 607 l 72 607 l 72 229 b 289 -17 72 88 131 -17 b 488 107 381 -17 458 35 l 488 0 l 603 0 l 603 607 l 488 607 z "},"ũ":{"ha":682,"x_min":0,"x_max":0,"o":"m 488 258 b 328 74 488 146 418 74 b 188 240 232 74 188 139 l 188 607 l 72 607 l 72 229 b 289 -17 72 88 131 -17 b 488 107 381 -17 458 35 l 488 0 l 603 0 l 603 607 l 488 607 z m 208 703 b 260 779 211 751 222 779 b 431 699 314 779 356 699 b 546 865 508 699 546 764 l 476 865 b 425 789 474 817 464 789 b 254 869 371 789 329 869 b 139 703 178 869 139 803 z "},"ẃ":{"ha":892,"x_min":0,"x_max":0,"o":"m 488 700 l 622 875 l 482 875 l 407 700 z m 499 607 l 401 607 l 274 147 l 268 147 l 125 607 l 10 607 l 204 0 l 315 0 l 443 453 l 449 453 l 578 0 l 689 0 l 882 607 l 775 607 l 635 147 l 629 147 z "},"ŵ":{"ha":892,"x_min":0,"x_max":0,"o":"m 379 875 l 268 700 l 351 700 l 446 803 l 540 700 l 624 700 l 513 875 z m 499 607 l 401 607 l 274 147 l 268 147 l 125 607 l 10 607 l 204 0 l 315 0 l 443 453 l 449 453 l 578 0 l 689 0 l 882 607 l 775 607 l 635 147 l 629 147 z "},"ẁ":{"ha":892,"x_min":0,"x_max":0,"o":"m 499 607 l 401 607 l 274 147 l 268 147 l 125 607 l 10 607 l 204 0 l 315 0 l 443 453 l 449 453 l 578 0 l 689 0 l 882 607 l 775 607 l 635 147 l 629 147 z m 496 700 l 421 875 l 281 875 l 415 700 z "},"ẅ":{"ha":892,"x_min":0,"x_max":0,"o":"m 294 733 l 408 733 l 408 864 l 294 864 z m 486 733 l 599 733 l 599 864 l 486 864 z m 499 607 l 401 607 l 274 147 l 268 147 l 125 607 l 10 607 l 204 0 l 315 0 l 443 453 l 449 453 l 578 0 l 689 0 l 882 607 l 775 607 l 635 147 l 629 147 z "},"ŷ":{"ha":639,"x_min":0,"x_max":0,"o":"m 279 -233 l 629 607 l 515 607 l 329 140 l 324 140 l 131 607 l 10 607 l 265 1 l 167 -233 z m 253 875 l 142 700 l 225 700 l 319 803 l 414 700 l 497 700 l 386 875 z "},"ỳ":{"ha":639,"x_min":0,"x_max":0,"o":"m 279 -233 l 629 607 l 515 607 l 329 140 l 324 140 l 131 607 l 10 607 l 265 1 l 167 -233 z m 369 700 l 294 875 l 154 875 l 289 700 z "},"ź":{"ha":594,"x_min":0,"x_max":0,"o":"m 346 700 l 481 875 l 340 875 l 265 700 z m 399 518 l 42 79 l 42 0 l 554 0 l 554 89 l 182 89 l 546 528 l 546 607 l 53 607 l 53 518 z "},"ż":{"ha":594,"x_min":0,"x_max":0,"o":"m 399 518 l 42 79 l 42 0 l 554 0 l 554 89 l 182 89 l 546 528 l 546 607 l 53 607 l 53 518 z m 244 744 l 365 744 l 365 875 l 244 875 z "},"⅓":{"ha":1021,"x_min":0,"x_max":0,"o":"m 38 732 l 139 732 l 139 336 l 236 336 l 236 878 l 165 878 b 38 796 146 821 113 796 z m 878 151 b 779 69 878 99 838 69 b 661 181 710 69 664 106 l 565 183 b 779 -10 565 64 646 -10 b 979 144 900 -10 979 50 b 865 272 979 214 932 263 b 967 394 917 281 967 328 b 776 550 967 488 897 550 b 574 354 650 550 574 467 l 668 351 b 774 471 668 425 708 471 b 868 386 838 471 868 436 b 776 306 868 326 825 306 b 729 307 756 306 739 306 l 729 232 b 776 235 742 233 758 235 b 878 151 835 235 878 206 z m 775 875 l 681 875 l 117 0 l 211 0 z "},"⅔":{"ha":1181,"x_min":0,"x_max":0,"o":"m 1039 151 b 939 69 1039 99 997 69 b 822 181 869 69 825 106 l 726 183 b 939 -10 726 64 807 -10 b 1139 144 1061 -10 1139 50 b 1026 272 1139 214 1093 263 b 1128 394 1078 281 1128 328 b 936 550 1128 488 1058 550 b 735 354 811 550 735 467 l 829 351 b 935 471 829 425 869 471 b 1029 386 997 471 1029 436 b 938 306 1029 326 985 306 b 889 307 917 306 900 306 l 889 232 b 936 235 903 233 919 235 b 1039 151 996 235 1039 206 z m 188 417 l 278 489 b 429 715 357 554 429 619 b 239 883 429 810 367 883 b 42 699 121 883 42 811 b 47 649 42 682 44 665 l 146 644 b 139 692 142 660 139 674 b 236 801 139 760 172 801 b 326 710 299 801 326 764 b 192 524 326 640 276 594 l 40 397 l 40 333 l 443 333 l 443 417 z m 936 875 l 840 875 l 276 0 l 372 0 z "},"⅛":{"ha":1038,"x_min":0,"x_max":0,"o":"m 38 732 l 139 732 l 139 336 l 236 336 l 236 878 l 165 878 b 38 796 146 821 113 796 z m 786 478 b 883 392 844 478 883 449 b 786 308 883 338 844 308 b 692 392 729 308 692 338 b 786 478 692 449 729 478 z m 786 239 b 897 153 857 239 897 210 b 786 64 897 96 857 64 b 676 153 717 64 676 96 b 786 239 676 210 717 239 z m 786 -10 b 996 144 919 -10 996 50 b 890 274 996 214 949 263 b 979 400 944 296 979 338 b 786 550 979 493 899 550 b 594 400 675 550 594 493 b 683 274 594 338 626 296 b 576 144 624 263 576 214 b 786 -10 576 50 654 -10 z m 775 875 l 681 875 l 117 0 l 211 0 z "},"⅜":{"ha":1189,"x_min":0,"x_max":0,"o":"m 938 478 b 1033 392 996 478 1033 449 b 938 308 1033 338 996 308 b 842 392 881 308 842 338 b 938 478 842 449 881 478 z m 938 239 b 1047 153 1007 239 1047 210 b 938 64 1047 96 1007 64 b 828 153 868 64 828 96 b 938 239 828 210 868 239 z m 938 -10 b 1147 144 1069 -10 1147 50 b 1040 274 1147 214 1100 263 b 1129 400 1096 296 1129 338 b 938 550 1129 493 1049 550 b 746 400 826 550 746 493 b 835 274 746 338 778 296 b 726 144 775 263 726 214 b 938 -10 726 50 806 -10 z m 351 486 b 253 404 351 433 311 404 b 135 515 182 404 138 440 l 39 518 b 253 325 39 399 119 325 b 453 479 374 325 453 385 b 339 607 453 549 406 597 b 440 729 390 615 440 661 b 250 885 440 822 371 885 b 47 689 124 885 47 801 l 142 686 b 247 806 142 760 182 806 b 342 719 311 806 342 771 b 250 640 342 661 299 640 b 203 642 229 640 213 640 l 203 567 b 250 568 215 568 232 568 b 351 486 308 568 351 540 z m 926 875 l 831 875 l 267 0 l 363 0 z "},"⅝":{"ha":1169,"x_min":0,"x_max":0,"o":"m 918 478 b 1014 392 976 478 1014 449 b 918 308 1014 338 976 308 b 822 392 860 308 822 338 b 918 478 822 449 860 478 z m 918 239 b 1028 153 988 239 1028 210 b 918 64 1028 96 988 64 b 808 153 849 64 808 96 b 918 239 808 210 849 239 z m 918 -10 b 1128 144 1050 -10 1128 50 b 1021 274 1128 214 1081 263 b 1110 400 1076 296 1110 338 b 918 550 1110 493 1029 550 b 726 400 807 550 726 493 b 815 274 726 338 758 296 b 707 144 756 263 707 214 b 918 -10 707 50 786 -10 z m 407 875 l 85 875 b 50 572 82 786 63 646 l 146 567 b 246 622 164 597 196 622 b 353 515 313 622 353 576 b 246 404 353 446 311 404 b 136 519 175 404 136 450 l 42 526 b 244 325 36 404 111 325 b 444 515 364 325 444 400 b 258 699 444 617 382 699 b 142 653 203 699 164 678 b 158 792 147 679 157 764 l 407 792 z m 907 875 l 811 875 l 247 0 l 342 0 z "},"⅞":{"ha":1054,"x_min":0,"x_max":0,"o":"m 803 478 b 899 392 861 478 899 449 b 803 308 899 338 861 308 b 707 392 744 308 707 338 b 803 478 707 449 744 478 z m 803 239 b 913 153 872 239 913 210 b 803 64 913 96 872 64 b 692 153 732 64 692 96 b 803 239 692 210 732 239 z m 803 -10 b 1013 144 935 -10 1013 50 b 906 274 1013 214 964 263 b 994 400 961 296 994 338 b 803 550 994 493 914 550 b 610 400 690 550 610 493 b 700 274 610 338 643 296 b 592 144 640 263 592 214 b 803 -10 592 50 669 -10 z m 308 788 b 140 336 200 672 143 521 l 247 336 b 417 807 249 514 281 667 l 417 875 l 25 875 l 25 788 z m 792 875 l 696 875 l 132 0 l 226 0 z "}}}
